<svg preserveAspectRatio="none" data-bbox="10.9 7.193 745.2 161.662" viewBox="10.9 7.193 745.2 161.662" height="234.667" width="1024"
    xmlns="http://www.w3.org/2000/svg" data-type="shape" role="presentation" aria-hidden="true" aria-label="">
    <g>
        <path d="M634.5 10.2c-1.7 2.8-3.3 3.6-11 5.9-12.2 3.6-19.7 4.9-28.9 4.9-8 0-11.6 1.1-11.6 3.5 0 2.3 2.9 3.2 7.3 2.4s10.1-.2 13 1.3c1.3.7 1.8 1.9 1.6 4.3-.2 1.9 0 3.7.4 4.1 1.3 1.3.7 3.3-1.5 5.4-1.7 1.5-1.9 2.3-1 3.2.8.8 1.5.8 2.5 0 .8-.7 1.7-.9 2-.6.9.9-2.3 5.4-3.9 5.4-.8 0-1.4.9-1.4 2 0 2.4.9 2.5 3.6.5 1-.8 2.3-1.5 2.8-1.5.4 0 .6 4.4.2 9.7-.3 5.4-.5 10.7-.5 11.8.4 5 .2 18.2-.3 20-.3 1.1.2 3 1 4.3 1.1 1.7 1.3 3.4.7 7-.5 2.6-.7 6.6-.6 9q.15 4.35-2.4 9.3c-2.4 4.8-2.4 5-.4 4.4 1.8-.6 2-.4 1.4 2.8-.4 1.9-.2 3.7.3 4.1 1.1.6.4 5.4-.9 6.2s-1.1 4.4.2 4.4c2.2 0-.1 6.4-3.1 9-1.7 1.4-3 3-3 3.6 0 1.5-3.4 3.2-12 5.8-4.7 1.4-7.5 2.8-7.5 3.7 0 1.7 4.7 1.7 15.8 0 4.3-.7 10.2-1.3 13.2-1.4 3-.2 5.7-.5 6-.9.3-.3 3.4-.4 6.8-.1 6.1.5 10.4.7 32 1.7l10.7.5v-5.7l-8 .5-8 .6v-2.7c0-1.4-.5-2.6-1.1-2.6-.5 0-.8.4-.5.8.2.4.1 1.4-.4 2.2-.7 1.2-1 1.1-1.6-.5-.4-1.1-1.9-2.9-3.2-4.1-2.2-1.8-2.6-2.9-2.5-7.5.1-3-.3-5.9-.8-6.5-.4-.6-.6-8.2-.3-17 .5-18.6.7-20.5 1.7-22.1.4-.6.3-1.4-.3-1.8-1.9-1.1-1.2-11.7 1-15 2.5-3.7 2.5-4.5.1-4.5-1.6 0-2-.9-2.3-6.3-.2-3.4-.1-7.2.3-8.3 1.1-3 1.3-13.9.6-28.7-.4-7-.4-13.4 0-14.3.3-.8 1.8-2.1 3.4-3 1.8-.9 2.9-2.3 2.9-3.5 0-2-.1-2.1-2.5-.5-3.4 2.3-4.6 1.3-4.3-3.7.3-3.6 0-4.2-1.7-4.4-1.3-.2-2.7.8-4 2.9m.1 10.3c-1.2 1.8-1.3 2.5-.4 2.5 2.3.1-2.5 3-4.9 3-1.3 0-2.3.4-2.3 1 0 .5.7.7 1.5.4.8-.4 1.5-.2 1.5.4s-.6 1.3-1.2 1.5c-.7.3-.3.6.9.6 1.2.1 2.6-.5 3-1.3s1.4-1.6 2.2-1.8c1.1-.2 1.5 1.6 1.8 8.2.3 4.7.8 8.9 1.3 9.4.4.4.2 2.3-.6 4.2-.8 1.8-1.4 4.4-1.4 5.8 0 1.5-1.1 3.2-2.7 4.5-1.6 1.1-2.3 2.1-1.7 2.1s1.7-.7 2.4-1.5c2.2-2.6 3.1-1.6 1.5 1.5-1.2 2.3-2.7 3.3-6 4.2-2.5.7-4.5 1.6-4.5 2s-1 .9-2.2.9c-1.7.1-1.9.2-.5.6 2.4.6 2.1 2-.5 2.8-7 2-10.2 4.4-6 4.6.9 0 1.2.3.5.5-.7.3-1.9.2-2.7-.3-1.2-.7-1.2-1.3.1-4.6.8-2 2.1-3.7 2.9-3.7s3.1-1.6 5.3-3.5c2.1-1.9 4.6-3.5 5.5-3.5s1.6-.6 1.6-1.4c0-1-1.1-1.2-4.4-.9-2.6.3-4.6.1-5-.6-.5-.7.3-1.1 2.2-1.1 1.7 0 3.2-.6 3.6-1.5.3-.8 1.7-1.5 3.3-1.5 2.7.1 2.8.1.8 1.7-1.8 1.4-1.8 1.5-.2.9 1-.3 2.6-.6 3.4-.6 1.4 0 1.4-.2-.1-1.9-1.7-1.9-1.7-2 .3-3.1 1.2-.6 2.1-1.9 2.1-3 0-1.7-.5-1.6-5.7 1.1-4.6 2.4-6.2 2.8-7.9 2-2.5-1.1-3.4-.6-3.4 2.1 0 1-.5 1.8-1.1 1.8s-.9.6-.6 1.4c.5 1.3-2 3.2-3 2.2-.2-.2-.6-2.5-.9-5.1-.4-4.2-.1-4.9 2.7-7.6 4.9-4.5 13.7-10.1 14.9-9.4.5.3 1-.1 1-.9 0-1.8-2.1-2.1-3.7-.5-.8.8-1.7.8-3.2 0-1.9-1.1-2.1-.9-2.1 1.4 0 1.5-.6 2.5-1.5 2.5q-1.35 0-.9-1.8c.4-1.3.2-1.2-.7.3-1.7 2.7-4.1 4.4-6.1 4.5-2.7 0-1.1-2.7 3-5.1 5-3 9.3-7 8.6-8.1-.3-.5-2.7 1-5.4 3.2-6.5 5.4-9.3 5.4-4.8 0 1.8-2.2 3.7-4 4.2-4s1.8-.8 2.8-1.7c2.2-2 12.9-8.2 14.2-8.3.4 0 .1 1.1-.8 2.5M611.5 27c-2.1 2.3-3.5 2.6-3.5.7 0-1.3 4.1-3.8 4.9-3.1.2.2-.4 1.3-1.4 2.4m9.3 32.9c1 .6.9 1.3-.7 3.2-1 1.3-2.3 2.1-2.7 1.6-.4-.4-.3-1.2.3-1.8s.9-1.8.6-2.5c-.6-1.6.5-1.8 2.5-.5M615 65c0 .5-.4 1-1 1-.5 0-1-.5-1-1 0-.6.5-1 1-1 .6 0 1 .4 1 1m22 5.5c0 1-3.5 4.5-4.6 4.5-.3 0-3 1.6-6 3.6s-6.1 3.3-6.9 3-1.5-.1-1.5.3c0 .5-.2 1.6-.5 2.4-.4.8 0 1.4 1 1.4.9 0 1.4-.6 1.1-1.3s.2-1 1.3-.7c.9.2 2.9-.7 4.3-2 2.9-2.7 8.8-4.6 8.8-2.8 0 .5-2.1 2.7-4.6 4.8s-6.5 5.5-8.9 7.5c-3.8 3.5-7.5 4.9-7.5 3 .1-2.6 1.5-5.2 2.9-5.3s1.3-.2-.1-.6c-1-.2-1.8-1.1-1.8-1.8s-.6-1.6-1.2-1.8c-1.3-.5 8.7-10.7 10.4-10.7.4 0 .8-.5.8-1 0-.6.7-1 1.5-1s1.5.4 1.5 1c0 1.5 1.7 1.2 2.3-.4q.6-1.5-.9-.9c-2.4.9-1.6-2 1.3-4.4l2.6-2.3 2.4 2.2c1.3 1.2 2.3 2.6 2.3 3.3m-1.4 18.2c.7 1 1.4 4.1 1.4 7 0 4.2-.4 5.5-2.2 6.8-1.6 1.2-1.9 1.9-1 2.2 1.4.6 1.6 3.3.2 3.3-.5 0-1 .4-1 1 0 .5.7.7 1.5.4 1.7-.7 2.1 1.1.4 2.1-.5.4-1.4 1.8-1.9 3.1-.8 2-1.5 2.3-3.4 1.8-1.8-.4-3 0-4.2 1.4-.9 1.1-2.3 1.8-3 1.5-1.4-.5-5.5 2.7-4.8 3.9.3.4-.7.8-2.2.8-2.6 0-2.6 0-.9-2.7 1.6-2.4 1.6-2.6.1-2s-1.6-.1-1.4-5.9c.1-3.6.6-6.8 1.1-7.1s.3-.9-.4-1.4c-1.1-.7-1-1.2.6-2.9 3.3-3.3 17.9-14.8 18.9-14.9.5-.1 1.5.7 2.2 1.6m.4 29.7c-.5.5-1 2-1 3.3s-.9 3.2-2 4.3c-2.5 2.5-2.6 4.3-.1 3.5 1.5-.4 2 .1 2.5 2.6 1.2 6.2.7 8.6-2.1 10.7-3.1 2.2-2.4 4.4.7 2.4 1.2-.7 2.1-.8 2.5-.2.3.6.1 1-.4 1-.7 0-.7.7.1 2 1.1 1.7 1 2.2-.2 3-1.1.7-1.6.5-1.8-.5-.3-1.3-.8-1.2-3 .3-1.5 1-3.5 2.2-4.4 2.5-1 .4-1.8 1.2-1.8 1.9 0 1.9-7.8 5.4-9.1 4.1-.7-.7.5-2.2 3.6-4.7 4.6-3.8 5.6-5.6 3.1-5.6-.7 0-1.3-1-1.2-2.3.1-1.7.8-2.3 3.4-2.5 3.3-.3 4 .6 2 2.6-.6.6-.8 1.5-.5 1.9.4.4 1.5-.1 2.5-1 1.3-1.3 1.4-2.1.6-3.5-.9-1.4-.6-2 1.7-3.4 3.5-2.1 3.9-4.2.7-3.3-1.3.4-2.7 1.1-3.2 1.6-.6.5-2.5.9-4.4.9s-4.5.9-6 2.1l-2.7 2.1 2.5-.7c1.6-.5 2.2-.4 1.5.3-.5.5-2.5 1.2-4.2 1.5-2.7.5-3.3.3-3.3-1.1 0-2 2.7-5.5 5.5-7 1.9-1.1 1.9-1.1-.2-1.2-2.5 0-3-1.8-1-4 1-1.2.9-1.2-.5-.1-1 .7-2.2 1.1-2.8.9-1.3-.4 4.1-6.4 9.5-10.3 2.2-1.7 4.5-3.6 5.1-4.4.9-1.1 1.3-1.2 1.9-.1.5.8-.1 1.9-1.6 3.1-1.3 1-1.9 1.9-1.2 1.9 1.8 0 7.8-6.3 7.5-8-.2-1 .2-.9 1.3.4 1 1.3 1.2 2.3.5 3M617.3 150c-1.5.6-2.1 1.5-1.7 2.5s0 1.5-1.5 1.5c-1.2 0-2.1-.4-2.1-.9 0-1.4 4.1-4.1 6-4 .9 0 .6.4-.7.9m1.2 3c.3.5.1 1-.4 1-.6 0-1.1-.5-1.1-1 0-.6.2-1 .4-1 .3 0 .8.4 1.1 1m16.5 2.2c-1.2.5-2 1.1-1.7 1.4s1.5 0 2.7-.6c1.7-.9 2.5-.9 3.3-.1 1.5 1.5-.7 3.1-4.3 3.1-1.4 0-3.5.3-4.7.6-1.4.4-2.3.2-2.3-.4 0-1.6 7.1-6.2 8.3-5.5.6.4 0 1-1.3 1.5"></path>
        <path d="M625.5 33c-.3.5-.1 1 .4 1 .6 0 1.1-.5 1.1-1 0-.6-.2-1-.4-1-.3 0-.8.4-1.1 1"></path>
        <path d="M629.5 42.5c-6.1 5.6-5.3 6.9 1.2 2 5.1-4 5.9-5 4.5-5.9-.5-.3-3 1.5-5.7 3.9"></path>
        <path d="M631.1 90.3c-1.3 2.1-1.2 2.1.5.5 1-1 1.6-2 1.3-2.2-.3-.3-1.1.5-1.8 1.7"></path>
        <path d="M629.3 106.7c-1.3.2-2.3.9-2.3 1.4 0 1.4 2.6 1.1 4-.6.7-.8 1.1-1.4.9-1.4-.2.1-1.4.4-2.6.6"></path>
        <path d="M626.5 128.8c-3 1.5-8.5 6.2-7.4 6.2 1.6 0 9.8-5.2 10.3-6.5.3-.8.4-1.5.3-1.4s-1.5.8-3.2 1.7"></path>
        <path d="M628 132c0 .5.5 1 1 1 .6 0 1-.5 1-1 0-.6-.4-1-1-1-.5 0-1 .4-1 1"></path>
        <path d="M620.5 137c-.3.5.1 1 .9 1 .9 0 1.6-.5 1.6-1 0-.6-.4-1-.9-1-.6 0-1.3.4-1.6 1"></path>
        <path d="M623.5 146c-.3.5-.2 1 .4 1 .5 0 1.3-.5 1.6-1 .3-.6.2-1-.4-1-.5 0-1.3.4-1.6 1"></path>
        <path d="M723.3 10.4c-1.8 2.8-3.4 3.7-9 5.4-11 3.3-22.5 5.2-30.7 5.2-8.1 0-11.6 1.1-11.6 3.5 0 2.3 3.3 3.5 7.4 2.5 4-.9 9.9-.3 12.9 1.2 1.3.7 1.8 1.9 1.6 4.1-.1 1.8.2 4 .6 5 .5 1.2.1 2.5-1.4 4.1-1.3 1.4-1.9 2.9-1.5 4 .6 1.6.8 1.6 2.5 0 1.1-1 2.2-1.5 2.5-1.1.9.8-2.7 5.7-4.2 5.7-.8 0-1.4.9-1.4 2 0 2.4 1.7 2.6 4.1.4 1.7-1.5 1.8-1.4 2.5 2 .3 2 .3 6.7-.2 10.4s-.7 7.4-.5 8.2c.8 4.5.9 16.5.1 17.5-1.1 1.3-.8 3 1 6.7 1 2.1 1 4 .3 8-.6 2.9-.9 6.7-.6 8.5.4 2.3-.2 4.6-2.1 7.9-3.1 5.5-3.1 5.7-.8 5 1.5-.5 1.7.2 1.9 5.8.2 4.7-.2 6.8-1.3 7.7-1.3 1-1.3 1.5.1 3.6 1 1.4 1.3 3.2 1 4.4-.8 2.4-4 5.9-5.5 5.9-.5 0-1 .9-1 1.9 0 2.3-5.9 5.3-13.8 7.1-4 .9-5.2 1.6-5 2.9.4 1.9 3.7 2 14.8.2 14.9-2.4 22.6-2.7 40-1.7 4.1.3 12.6.7 18.8.9l11.3.5-.3-2.7-.3-2.6-8.2.4-8.3.3v-2.6c0-3.2-1.7-3.5-2.3-.4l-.4 2.3-.8-2.2c-.4-1.2-1.7-2.9-3-3.7-2.7-1.8-4.2-8-2.4-10.2.9-1.1.8-1.8-.6-3.4-1.5-1.7-1.6-3.6-1.1-17.2.5-16.1 1-21 2-22.7.4-.5.2-1.2-.4-1.6-1.9-1.1-1.2-11.7 1-15 2.5-3.8 2.5-4.5 0-4.5-1.6 0-1.9-.7-1.8-4.3 0-2.3-.1-5.8-.2-7.6-.2-1.9.1-3.6.6-3.8.6-.2.9-4.3.7-9.6-.1-5-.4-14.4-.6-20.7l-.4-11.5 3.3-3.1c4.1-3.7 4.7-6.5.9-4s-4.5 2-4.2-3.2c.2-4-.1-4.7-1.8-5-1.3-.1-2.7.9-4.2 3.2m-.7 11.2c-2 2-2 2.5.1 1.7 1-.4 1.4-.2 1 .4s-2.3 1.4-4.2 1.7c-1.9.4-3.5 1.1-3.5 1.6s.7.7 1.5.4c.8-.4 1.5-.1 1.5.5s-.4 1.1-1 1.1c-.5 0-1 .5-1 1 0 1.2 3.6-.5 5.8-2.7.8-.8 1.6-1.2 1.8-1.1.2.2.7 4.9 1.3 10.4.7 7.7.6 11.2-.4 15.2-.8 2.9-1.2 5.9-.9 6.7 1 2.6-1.6 5.5-6.1 6.7-2.5.7-4.5 1.6-4.5 2s-1.1.8-2.5.8-2.5.4-2.5.9 1 .7 2.1.4c1.5-.4 2-.2 1.7.7-.2.7-1.2 1.4-2.2 1.6-2.9.4-7.6 2.6-7.6 3.4 0 .5.8 1.1 1.8 1.3 1.2.3 1.3.5.2.6-.8 0-2.2-.3-2.9-.8-1.3-.8-1.2-1.5.4-4.5 1.1-2 2.9-3.9 4-4.2 1.1-.4 3.7-2.2 5.8-4.1 2.1-1.8 4.2-3.1 4.7-2.8.6.4 1 .1 1-.4 0-.6-2-1.1-4.4-1.1-2.5 0-4.8-.5-5.2-1.1-.3-.6.1-1 1.2-.9 3.4.4 4.4 0 4.4-1.5 0-.9.9-1.5 2.5-1.5 1.4 0 2.5.5 2.5 1.1 0 .5-.4.7-1 .4-.5-.3-1-.1-1 .5 0 .7.7.9 1.6.6s2-.6 2.5-.6c1.4 0 1.1-2.8-.3-3.2-.8-.3-.4-.9 1-1.7 1.2-.6 2.2-2 2.2-3.1 0-1.7-.6-1.6-6.5 1.5-3.6 2-6.7 3-7 2.5-1.1-1.7-3.5-1.1-3.5.9 0 1-.8 2.2-1.7 2.5-1.3.5-1.4.9-.5 1.5.9.5.5 1.1-1.3 1.9-2.4 1.1-2.5 1-2-1.1.4-1.3.1-3.5-.5-5.1-.9-2.6-.7-3.1 2.5-6.1 4.8-4.6 11.6-9.1 15-9.9 2-.5 2.5-1 1.7-1.8s-1.8-.8-3.5-.1c-1.4.7-3 .8-3.8.2-1-.6-1.5-.2-1.9 1.3-.3 1.2-1.2 2.4-2 2.6-1.3.5-1.3.3 0-1.3s1.3-1.8 0-1.3c-.8.2-1.6 1.4-1.8 2.6-.2 1.3-.8 1.9-1.8 1.5-.8-.3-1.4 0-1.4.6s-.7 1.1-1.5 1.1c-2.9 0-1.5-2.7 2.8-5.5 5.8-3.8 8.7-6.6 8-7.8-.3-.5-.8-.5-1.2-.1-1.5 2.1-9.1 7.4-10.6 7.4-1.2 0-.8-1 1.7-4 1.8-2.2 3.7-4 4.2-4s1.8-.8 2.8-1.7c3.2-2.9 13.3-8.2 13.6-7.2.2.5-.4 1.6-1.2 2.5M700.5 27c-1.6 1.8-3.5 1.9-3.5.1 0-.9 4.3-3.1 4.9-2.5.2.2-.4 1.3-1.4 2.4m9 33c.7 1.2-1.2 5-2.5 5-.6 0-1-.7-1-1.5s.4-1.5 1-1.5c.5 0 .7-.7.4-1.5-.7-1.6 1.1-2.1 2.1-.5m-5.5 5c0 .5-.2 1-.4 1-.3 0-.8-.5-1.1-1-.3-.6-.1-1 .4-1 .6 0 1.1.4 1.1 1m19 1.4c0 .8.7 1.6 1.5 2 2.6 1 1.6 3.3-2.7 6.2-6.8 4.6-8.8 5.5-8.9 4.1 0-.7-.5-.1-1 1.2-.7 1.7-1.5 2.2-2.9 1.8-1.1-.3-2-.1-2 .3 0 .5-.2 1.5-.5 2.3-.4.8 0 1.4 1 1.4.9 0 1.4-.6 1.1-1.3s.2-1 1.3-.7c1 .2 2.8-.7 4.3-2.1 2.7-2.7 8.8-4.7 8.8-2.8 0 1-8.1 8.2-9.2 8.2-.3 0-2.6 2.1-5.1 4.6s-5.1 4.3-5.6 3.9c-.6-.3-.8-2.4-.4-5.1.4-3.4.2-4.8-.8-5.5-1.1-.7-.2-2 4-5.9 3-2.7 5.8-5 6.3-5 .4 0 .8-.5.8-1 0-.6.7-1 1.6-1 1 0 1.4-.5 1-1.5-.3-1 .1-1.8 1.2-2.2.9-.4 2.3-1.3 3-2 1.7-1.7 3.2-1.7 3.2.1m1.8 22.3c.6 1.5 1.2 4.8 1.2 7.4 0 3.8-.5 5.1-2.2 6.4-1.9 1.3-2.1 1.7-.8 2.5 1.2.7 1.2 1.2.2 2.2-1.7 1.7-1.5 2.9.3 2.2 1.7-.7 2.1 1.1.4 2.1-.5.4-1.4 1.8-1.9 3.1-.8 2-1.5 2.3-3.4 1.8-1.8-.4-3 0-4.2 1.4-.9 1.1-2.3 1.8-3 1.5-1.4-.5-5.5 2.7-4.9 3.8.3.4-.6.9-2 1.1-2.8.6-3.4-1.2-1-3.2.8-.7 1.5-1.8 1.4-2.4 0-.7-.2-.6-.6.1-.2.7-.9 1.3-1.4 1.3-1.3 0-.9-12 .4-13.8.6-.7.6-1.2-.1-1.2-2.4 0 .3-3.8 5.1-7.3 2.9-2 7.2-5.5 9.6-7.7 2.5-2.2 4.7-4 5-4s1.2 1.2 1.9 2.7m-.3 30.4c-.4 2.9-1.5 5.9-2.6 7-2.4 2.4-2.4 4.2 0 3.4 1.5-.4 2 .1 2.5 2.6 1.3 6.6 0 10.9-3.3 10.9-.6 0-1.1.7-1.1 1.5 0 1.8 2.1 2 3.9.2 1.2-1 1.3-.9.7.7-.3 1-.1 2.5.6 3.3.9 1.1.9 1.6-.2 2.3-1.6 1-3.3.3-2.5-1.1.4-.5.2-.9-.4-.9-.5 0-1.4.6-1.8 1.3s-2 1.8-3.5 2.4c-1.6.7-2.8 1.8-2.8 2.5 0 1.9-7.8 5.4-9.1 4.1-.7-.7.5-2.2 3.6-4.7 4.6-3.8 5.6-5.6 3.1-5.6-.7 0-1.3-1-1.2-2.3.1-1.7.8-2.3 3.4-2.5 3.3-.3 4 .6 2 2.6-.6.6-.8 1.5-.5 1.9.4.4 1.5-.1 2.5-1 1.4-1.4 1.5-2.1.4-3.7-1.1-1.8-.9-2.1 1.2-3 2.5-.9 4.2-2.8 3.3-3.7-.3-.2-2 .2-3.9 1.1-1.8.8-4.9 1.6-6.8 1.8s-3.4.8-3.3 1.3c.1.6-.8 1.2-2 1.2-1.1.1-2.5.9-2.9 1.8-1.2 2-2.8 1.9-2.8-.1 0-1.9 3.8-7.4 5.1-7.4.5 0 2.2-1.1 3.7-2.5s3.2-2.5 3.8-2.5 2.1-1.1 3.4-2.5 1.8-2.5 1.2-2.5c-.7 0-1.2.4-1.2 1 0 .5-.6 1-1.3 1-.8 0-2.5 1-3.8 2.1-6.1 5.4-9.8 6.2-7 1.6 1.3-2 1.3-2.1-.2-.9-.9.8-2.1 1.1-2.7.7-.8-.5.3-2 2.8-4.4 6.4-5.9 9.2-8.1 10.1-8.1.5 0 1.2-.8 1.5-1.7.5-1.2.9-1.4 1.8-.5s.2 2-2.8 4.7c-2.1 1.9-3.4 3.5-2.9 3.5 1.7 0 11-9.4 10.7-10.8-.2-.6.2-1.2.9-1.2s.9 1.5.4 5.1M705 153.2c0 .5-.9.8-2 .8-2.3 0-2.6-1-.8-2.8.9-.9 1.4-.9 2 .1.4.6.8 1.5.8 1.9m2.5-.2c.3.5.1 1-.4 1-.6 0-1.1-.5-1.1-1 0-.6.2-1 .4-1 .3 0 .8.4 1.1 1m21.5 4.1c0 .9-1.5 1.3-8.2 2.4-5 .8-5-1.3-.1-4.1 3.4-2 3.9-2 6-.7 1.3.9 2.3 1.9 2.3 2.4"></path>
        <path d="M722.5 33c-.3.5-.1 1 .4 1 .6 0 1.1-.5 1.1-1 0-.6-.2-1-.4-1-.3 0-.8.4-1.1 1"></path>
        <path d="M718.7 42.3c-2.6 2.3-4.7 4.6-4.7 5 0 1.4 1.9.7 4.2-1.6 1.3-1.2 3.4-2.9 4.8-3.9 1.8-1.1 2.2-1.9 1.5-2.7-.8-.8-2.4.1-5.8 3.2"></path>
        <path d="M721 59c-.8.5-1.1 1.2-.7 1.6s1.5 0 2.4-.9c1.8-1.8.8-2.3-1.7-.7"></path>
        <path d="M716.8 63.7c.7.3 1.6.2 1.9-.1.4-.3-.2-.6-1.3-.5-1.1 0-1.4.3-.6.6"></path>
        <path d="M716.2 72.2c-.7.7-1.2 1.5-1.2 2 0 1.2 2.8-.2 3.4-1.8.7-1.7-.6-1.8-2.2-.2"></path>
        <path d="M704.5 88c-.3.5-.1 1 .4 1 .6 0 1.1-.5 1.1-1 0-.6-.2-1-.4-1-.3 0-.8.4-1.1 1"></path>
        <path d="M720 89.9c-.7 1.5-.7 2.1 0 2.1 1.2 0 2.5-2.8 1.7-3.6-.3-.3-1 .4-1.7 1.5"></path>
        <path d="M718.3 106.8c-2.4.4-3.2 2.2-1 2.2 1.5 0 4.3-1.8 3.7-2.2-.3-.2-1.5-.2-2.7 0"></path>
        <path d="M716.7 131.7c-1.2 1.2-.7 2.2.8 1.7.8-.4 1.5-1 1.5-1.5 0-1.1-1.4-1.2-2.3-.2"></path>
        <path d="M709.7 136.7c-1.2 1.2-.7 2.2.8 1.7.8-.4 1.5-1 1.5-1.5 0-1.1-1.4-1.2-2.3-.2"></path>
        <path d="M712.5 146c-.3.5-.2 1 .4 1 .5 0 1.3-.5 1.6-1 .3-.6.2-1-.4-1-.5 0-1.3.4-1.6 1"></path>
        <path d="M723 155.5c-1.4 1.6-.3 2 1.9.6.8-.5.9-1.1.3-1.5-.5-.3-1.5.1-2.2.9"></path>
        <path d="M471.6 10.5c-4.4 4.5-8.7 10.9-12.3 18.5-2.2 4.7-5.2 10.3-6.7 12.4-1.4 2.1-2.6 5.2-2.6 6.7 0 2.5-1.6 6.5-5.1 13.1-.5 1-.9 2.4-.9 3.1 0 .8-1.3 3.4-3 5.8-1.6 2.4-3 5.3-3 6.4s-.9 3.3-2 5c-1.1 1.6-2 4.1-2 5.5-.1 1.4-.8 4.3-1.6 6.5s-2.4 7.4-3.5 11.5-2.5 8-3 8.6-2 4-3.3 7.5c-1.3 3.6-3.4 8.7-4.7 11.5-1.2 2.7-2.6 6-3.1 7.4-1.6 4-6 12.4-7.5 14.1-3.3 3.9-20.9 9.9-28.7 9.9-2.8 0-3.7.3-3 1 .8.8 7.4.4 21.5-1 11.2-1.2 21.9-1.8 23.8-1.5 5.1 1 27.3-.5 26.8-1.8-.2-.6-4.9-1.2-11.3-1.4-12-.4-14.4-1.4-17.7-7.1-1.8-3.1-1.8-3.3.9-11.4 1.5-4.6 3.4-9.4 4.4-10.8.9-1.4 2.5-4.9 3.6-7.8 3.1-9 2-8.7 31.5-8.8 17.6-.1 26.2.3 26.8 1 .5.6 1.1 2.4 1.4 4.1 1.2 6.6 2 9.1 3.2 10.5.7.8 3.1 5.1 5.3 9.5 2.8 5.5 3.9 8.8 3.5 10.6-.4 2.1 0 2.7 1.6 3.2 2.7.7 1.9 2.8-2.3 6.1-4.6 3.4-13 5.7-18.6 5-4.9-.6-10.5.9-9.5 2.6.5.7 5 .9 13.6.4 11.7-.6 13.2-.4 15 1.2s2.4 1.6 5.7.4c2-.7 9.1-1.5 15.7-1.7s15.2-.8 19-1.3c3.9-.5 10.7-1 15.2-1.1 5.7-.1 8.6-.5 9.4-1.5.6-.8 1-1.4.8-1.5-.2 0-2.8-.2-5.7-.3-3.1-.2-5.9-.9-7-1.9-1-1-2.7-1.7-3.8-1.7s-2.8-.6-3.8-1.3c-1.4-1-1.5-1.8-.7-3.9 1.1-2.9.6-3.8-2.1-3.8-1 0-1.8-.7-1.8-1.6 0-1.3-.7-1.5-3.4-1-2.9.6-3.7.3-4.6-1.5-.8-1.4-.9-2.4-.2-3.1.8-.8.5-1.6-.8-2.7-2.1-1.9-3.4-6.7-2-7.6.5-.3 1-1.1 1-1.6 0-.6-.5-.7-1.2-.3-.8.5-.9.2-.5-1 .5-1.3.1-1.9-1.3-2.3-1.1-.3-2-.9-2-1.3 0-1.7 7.5-7.1 9.3-6.6.9.2 1.7 0 1.7-.6 0-.5-2.2-.7-5.5-.3-5.5.6-6.6 0-4.2-2.4 1-1 .7-1.6-1.1-3-2.1-1.5-2.2-1.9-.8-3 2.5-2.1 1.9-4.1-1.5-4.8-2.4-.4-2.9-1-2.6-2.4.4-1.5 0-1.9-1.9-1.9-1.3 0-2.4-.4-2.4-.9 0-1.4 2.9-2.2 5.6-1.5 1.8.5 2.4.2 2.4-1.1 0-1.5-.7-1.7-4-1.2-4.1.5-6.3-1.1-5.3-3.9.2-.6-.7-1.5-1.9-2.1l-2.2-1 2.7-2.5c4.6-4.3 3.3-7.6-2.1-5.6-3.5 1.4-6.5-.2-5.5-2.9.4-1.1.2-1.4-.5-.9-1.7 1-1.5-.9.2-2.3.7-.6 2-.9 2.7-.6.8.3 2-.4 2.7-1.5 1-1.7 1-2-.5-2-1 0-2.9.9-4.3 2s-2.8 2-3.1 2c-.4 0-1.9-1.8-3.5-4.1l-2.8-4.1 2.3-1.8c1.9-1.4 2.1-1.9 1-2.6-.8-.5-2.2-.7-3.1-.6-1.2.2-1.5-.2-1.1-1.8.3-1.1 0-2-.6-2-2.6 0-.6-5.4 2.1-5.5 1.8 0 1.9-1.5.1-1.5-1.3 0-2-.6-1.9-1.7 0-.9-.9-2.2-2.2-2.8l-2.2-1.2 2-2.6c1.1-1.4 2-3.4 2-4.6 0-1.7-.5-2-2.8-1.5s-3.2.1-4.5-2c-.9-1.4-1.7-3.6-1.7-4.9 0-1.4-.8-3.5-1.9-4.8-1-1.3-2.2-3.5-2.6-4.9-.7-2.5-6.2-9-7.6-9-.4 0-1.4.7-2.3 1.5m-.6 7.9c0 .3-.4.8-1 1.1-.5.3-1 .1-1-.4 0-.6.5-1.1 1-1.1.6 0 1 .2 1 .4m8.3 1.9c.6 1.6-2.6 5.7-4.5 5.7-1.6.1-4.8 2.4-4.8 3.6 0 .5-.9 1.5-2.1 2.2-1.2.8-1.8 1.9-1.5 2.8.4 1 .1 1.4-.6 1.2-2.7-.9-1.7-3.6 2.7-7.9 2.6-2.4 5.6-5.4 6.7-6.7 2.5-2.5 3.4-2.7 4.1-.9m.9 8.4c-1.9.9-3.6 2.2-3.9 3-.7 1.7-2.3 1.7-2.3-.1 0-.8.9-1.8 2-2.1s2-1.1 2-1.6 1.2-.9 2.8-.9h2.7zm3.7 4.5c1 2.7-.5 6.6-2.6 7-1.1.2-1 .7.5 2.3 2.1 2.3 1 4.3-2 3.7-1-.2-1.8.1-1.8.7s.5 1.1 1.1 1.1c2.2 0-.3 1.9-3.4 2.6-1.7.3-4.5 1.7-6 3-3.9 3.3-5.3 3-2.7-.6 1.2-1.7 2.7-3 3.4-3 1.6 0 7.1-5.8 6.3-6.6-.3-.4-1.8.1-3.3 1.1-2.4 1.5-2.6 1.6-2.1.1.4-.9.4-1.6.2-1.6-1.1 0-6.6 3.8-6.5 4.5.1.8-3.1 3.4-4.2 3.5-.5 0-.8-1.3-.8-2.8 0-3.1 3.2-6.8 6.5-7.4 1.1-.2 1.9-1.1 1.9-2.1-.1-1.2.6-1.7 2.5-1.7 1.6 0 3.5-1.1 5.1-2.9 3.1-3.6 6.7-4 7.9-.9m-3.4 25.2c-4.9 4.6-9.3 8.2-9.7 8-.6-.4 1.9-2.9 12.6-12.8 2.1-2 4.4-3.6 5-3.6s-2.9 3.8-7.9 8.4m-6.2-4.2c-1.1 1.3-2.9 3.4-4.1 4.7s-2.5 2-3.2 1.6c-.9-.5 0-1.9 2.6-4.5 4.3-4.2 8.2-5.6 4.7-1.8m-15 3.6c-.2 1.4.3 2.2 1.2 2.2 1.5 0 4.1 3.8 3.7 5.4-.2.5.4 1.6 1.3 2.6.8.9 1.2 2 .8 2.3-.3.4.2 2.2 1.2 4 1.8 3.3 1.8 3.4-.5 6.5-2.8 3.8-2 5 2 3.5 2.5-.9 3-.9 3 .3 0 .8 1 2.8 2.2 4.4 1.4 2 2.2 4.6 2.3 8.2.2 4.8.4 5.3 2.6 5.3 1.9 0 2.5.6 2.7 2.9.2 1.6 0 3.2-.5 3.7s-9 .9-18.8.9c-9.9-.1-20.6 0-23.7 0-3.2.1-5.8-.3-5.8-.7 0-2.1 2.5-9.6 5.6-16.8 10.3-23.7 17.5-37.6 19.3-37.3 1 .3 1.5 1.2 1.4 2.6m32.7.7c0 1.8-.9 2.9-3.7 4.4-2.1 1-6.2 4.2-9.1 7S473.5 75 473 75c-2.7 0-1.4-2.6 3.6-7.2 3.1-2.9 7.1-6.7 8.8-8.5 3.9-3.9 6.6-4.3 6.6-.8m2 6.4c0 .6-.4 1.3-1 1.6-.5.3-1 1.5-1 2.7 0 1.7.2 1.8 1.5.8 1.8-1.5 3.9-.1 6.1 4.1 1.3 2.6 1.2 3-1.2 5.6-1.4 1.5-3.1 3.5-3.8 4.3-2.8 3.8-12.7 11.2-14.1 10.6-2.1-.8-.9-5.6 1.8-7.6 1.2-.8 2.7-2.2 3.4-3s2.6-3 4.3-4.9c3.4-3.8 3.2-3.4 2.4-5.5-.9-2.3-5.1-2-7.2.5-2.3 2.8-10.2 8.1-10.2 6.8 0-1.4 4.2-6.9 5.3-6.9.4 0 2.5-1.6 4.5-3.5s4.5-3.8 5.5-4.1c.9-.3 1.7-1 1.7-1.5s.5-.9 1-.9c.6 0 1 .4 1 .9m7.4 18.3c-1.9 2.5-13.7 12.8-16.3 14.2-.9.5 2.4-3 7.3-7.8 8.4-8.2 12.7-11.2 9-6.4m2.6 5.5c0 .5-1.8 1.9-4 3.3-2.2 1.3-4 2.7-4 3.2 0 1.2-5.4 5.8-6.9 5.8-2 0 4.5-6.6 9.9-10.1 5-3.2 5-3.2 5-2.2m6 5c0 1-19.2 19.3-20.2 19.3-.5 0-.8-.7-.8-1.6 0-1.9 6.1-9.4 7.7-9.4.7 0 1.6-.6 2-1.3 2.6-4.1 11.3-9.5 11.3-7m3.9 10.4c-.5 1-1.4 1.9-2 1.9-1 0-5.1 3.5-13 11.2-2.9 2.8-5.5 4.5-6.3 4.2-1.5-.6-2.9-4.4-1.6-4.4 1.1 0 16-12.2 16-13.1 0-.5 1.2-1.5 2.8-2.3 3.4-1.8 5.7-.4 4.1 2.5M488 103c0 .5-.4 1-1 1-.5 0-1-.5-1-1 0-.6.5-1 1-1 .6 0 1 .4 1 1m27.4 9.3c-.2.7-1.7 2-3.2 2.9s-5.2 4.1-8.3 7.2c-5.3 5.3-7.9 6.8-7.9 4.7 0-.5 1.7-2.3 3.8-4 2-1.6 5.7-5 8.2-7.5 4.3-4.3 8.5-6.2 7.4-3.3m2.6 5.6c0 .4-4.2 5.2-9.4 10.6-8.1 8.4-9.5 9.5-10.4 8-.8-1.5.2-2.8 5.7-7.7 3.6-3.2 8-7.2 9.6-8.8q4.5-4.5 4.5-2.1m3.4 8.7c.6 1.6-.9 5.4-2.2 5.4-.4 0-2.3 1.5-4.2 3.3-2 1.7-4.8 4-6.3 5s-2.5 2.2-2.2 2.7c1.1 1.8-1.7 2.1-3.6.4-2-1.8-2-1.8.6-3.1 1.4-.8 2.5-1.7 2.5-2.2s1.8-2.1 4-3.6 3.7-3.1 3.4-3.6.1-.9.9-.9c.7 0 1.9-1.1 2.5-2.5 1.3-2.8 3.7-3.3 4.6-.9m3.6 9.4c0 1.1-.7 2-1.5 2s-1.5.4-1.5 1c0 .5.7.7 1.5.4.8-.4 1.5-.1 1.5.6q0 1.35-3 .6c-2.2-.4-3-.2-3 .9 0 .8-.9 1.5-2 1.5s-2.5.9-3.2 2-1.7 2-2.3 2c-.5 0-1.9 1.2-3.1 2.7-1.2 1.6-2.5 2.5-2.9 2.1-2.1-2.1 13.6-17.8 17.8-17.8 1 0 1.7.8 1.7 2m.4 11.7c-1.6 1.5-3.8 2.9-4.9 3-1.1.2-4.3 2.8-7.1 5.8-5.8 6.3-9.2 7.5-4.2 1.5 1.8-2.2 3.8-4 4.5-4 .6 0 1.3-.4 1.5-.8.5-1.4 10.2-8.1 11.7-8.2.8 0 .2 1.1-1.5 2.7m16.1 3.3c-.3.5-1.1 1-1.6 1-.6 0-.7-.5-.4-1 .3-.6 1.1-1 1.6-1 .6 0 .7.4.4 1m-13.5 5c0 .5-.4 1-1 1-.5 0-1-.5-1-1 0-.6.5-1 1-1 .6 0 1 .4 1 1m7 1.4c0 1-7.1 5.9-7.6 5.3-.8-.8 4.6-5.7 6.2-5.7.8 0 1.4.2 1.4.4"></path>
        <path d="M477.5 37c-.3.5-.1 1 .4 1 .6 0 1.1-.5 1.1-1 0-.6-.2-1-.4-1-.3 0-.8.4-1.1 1"></path>
        <path d="M473 40.5c0 1.7.2 1.8 2.4.9 2.3-.9 2-2.4-.4-2.4-1.1 0-2 .7-2 1.5"></path>
        <path d="M11 15.8c0 2.5.5 2.8 7.3 3.7 5.3.7 9.4 3.6 10.4 7.5 1 3.2 1.6 112.8.8 119.8-1 7.9-4.3 11.2-12 12.1-5.5.5-6 .8-6.3 3.2l-.3 2.5H77l66.1-.1-.8-8.5c-.4-4.7-.8-16-.8-25.3V114H139c-2.3 0-2.7.7-4.8 9.2-4.4 18-11.9 28.2-23.8 32.8-7.1 2.8-27.1 4-34.2 2.1-7.6-2.1-7.7-2.3-8-36.8L67.8 91h7.4c4.1 0 9.7.7 12.4 1.5 8 2.4 15.4 11.7 17 21.4.6 3.8.9 4.1 4 4.1h3.3l-.7-5.7c-.4-3.2-.7-16.5-.7-29.6V59h-2.7c-2.3 0-2.9.7-4.4 5.2-2.6 8.2-4.9 12.1-9.3 16.1-4.8 4.3-9.3 5.7-18.9 5.7h-7.3l.2-28.9c.1-32.8.5-34.6 6.9-36.7 5.2-1.8 25.4-1.1 31.7 1 6.2 2 13.3 8.1 17 14.4 1.5 2.5 3.9 8.6 5.4 13.6 2.4 8.1 2.9 9.1 5.1 9.4l2.5.3-.1-12.8c0-7 .3-17.3.7-22.8l.8-10H11z"></path>
        <path d="M163.2 16c.3 2.2.9 2.6 5.8 3.3 6.5.9 10.1 3.2 11.2 7.3 1 3.8 1 121 0 124.8-1.1 4.1-5 6.7-11.3 7.4-4.8.6-5.4 1-5.7 3.3l-.3 2.5H229l66-.1-.7-6c-.4-3.3-.7-15.8-.7-27.8l-.1-21.8-2.9.3c-2.8.3-3 .6-4.7 9.1-4.2 21-15.4 35.1-31.1 39.3-7.1 1.9-23.8 1.8-28.4-.1-6.5-2.7-6.4-1.6-6.3-67.7 0-43.3.3-60.2 1.2-62.7 1.6-4.4 5.3-7.1 10.8-7.8 5-.6 6.8-1.7 6.5-3.9-.2-1.3-5.3-1.5-38-1.7l-37.7-.2z"></path>
        <path d="M276 15.7c0 1.6 1 2.7 3.3 3.7 1.9.7 4.9 3.1 6.7 5.3s11.8 21.5 22.3 42.9c18.8 38.7 18.9 38.8 17.2 41.6-1.7 2.9-1.6 3 2.5 3.2 2.1.1 2.7.9 3.8 4.6 1.8 5.9 4.4 11.1 6 11.7.6.3 1.2 1.5 1.2 2.8 0 1.2.7 3.6 1.5 5.1.8 1.6 1.5 4 1.5 5.3 0 2.7 4.4 10.2 9.9 16.8 2.4 2.9 4.3 4.3 6 4.3 2.7 0 5-2.5 5.1-5.4 0-1.1 2.2-6.5 4.9-12 2.8-5.6 5.5-11.2 6-12.6.6-1.4 1.5-3.2 2-4 2.5-4.5 5.3-12.1 8.7-23.2.9-3.2 2.3-6.3 3-6.9.8-.6 1.4-2.1 1.4-3.3s.4-2.6.9-3.2c.5-.5 2.3-5.2 4.1-10.4 1.7-5.2 4.2-12.2 5.5-15.5s3.6-9.2 5-13c1.5-3.9 3.3-7.7 4-8.5s2-3.1 2.8-5 3-4.9 4.8-6.6c3.8-3.6 19.4-12.4 25.2-14.3 4.4-1.5 5-4.1 1-4.1-22-.1-53.2-.9-58-1.5-5.9-.7-6.3-.6-6.3 1.2 0 2.1 2.4 3.3 6.8 3.3 1.2 0 2.2.4 2.2.8 0 .5 3.2 2.6 7.1 4.8 4 2.1 7.7 4.8 8.4 5.9 1.5 2.3 1.9 11.8.6 14.3-.5.9-1.6 4.2-2.6 7.2s-2.6 6.9-3.6 8.7-3.2 7.8-4.9 13.3c-4.4 14.3-16 39.4-18.6 40.4-1.2.5-3.4-2.8-3.4-5.1 0-.3-1.1-1.4-2.4-2.4-1.5-1.2-2.9-3.8-3.6-7.1-.7-2.9-1.9-5.7-2.6-6.1-.8-.4-1.4-1.9-1.4-3.2s-.5-2.7-1-3c-.6-.4-.8-1.4-.5-2.4s-.3-2-1.7-2.6c-1.5-.7-5-7.1-12-22.5-5.4-11.8-10.5-23.9-11.4-26.9-1.5-5.1-1.5-5.5.3-8 1.9-2.4 6.1-4.3 12.6-5.6 2-.4 2.7-1.1 2.7-2.8v-2.2h-73zm68 76.7c0 .2-1.7 1.4-3.7 2.7-2.1 1.2-4.8 3.1-6 4.2-1.2 1-2.7 1.7-3.4 1.5-.6-.2 1.9-2.3 5.7-4.6 7.4-4.4 7.4-4.4 7.4-3.8m8 .6c0 .5-.6 1-1.4 1s-2.8 1.1-4.3 2.5c-2.7 2.3-2.7 2.4-.6 2.5 1.2 0 2.6-.6 3-1.3 1.2-2.1 7.1-5.2 8-4.3.4.5.2 1.1-.4 1.3-.7.3-1.3 1.1-1.3 1.9s-.4 1.4-.9 1.4c-1.7 0-6.4 2-5.9 2.6.3.3 2.4-.3 4.7-1.2s4.4-1.5 4.6-1.2c.2.2-3.9 3.3-9.3 6.8-9.4 6.4-11.3 8.7-6.9 8.3 3.1-.2 13.3-7.2 12.9-8.9-.2-.8.2-1.4.8-1.4.5 0 1 .4 1 .9s1 .7 2.3.5c1.2-.2 1.5-.1.7.2-.8.4-3 2-4.8 3.5-1.8 1.6-3.9 2.9-4.6 2.9-.8 0-2 .7-2.7 1.6-.8.9-3.1 2.8-5.3 4.2-3.8 2.3-4 2.4-5.3.6-.7-1-1.3-3.3-1.3-5.1 0-2.8.6-3.5 3.9-5.3 4-2 6.1-4 4.2-4-.5 0-1.3.5-1.6 1.1-.8 1.3-5.6 3.2-6.3 2.5-.8-.9 4.1-4.5 6.1-4.6 1 0 1.7-.8 1.7-2.1 0-2.2 0-2.2-5.9 1.8-4.7 3.2-6.3 2.9-2.2-.5 3.2-2.5 14.6-8.9 16.4-9.1.4-.1.7.3.7.9m10 14c0 .5-.5 1-1.1 1-.5 0-.7-.5-.4-1 .3-.6.8-1 1.1-1 .2 0 .4.4.4 1m-1 4.5c0 .2-1.5 1.2-3.2 2l-3.3 1.6 2.4-2.1c2.2-1.9 4.1-2.6 4.1-1.5m7 3.9c0 .8-3.7 3.6-8.2 6.2-4.6 2.5-9.8 5.5-11.6 6.5-3.8 2.2-5.2 2.4-5.2.6 0-1.1 8.7-7.7 10.3-7.7.4 0 3-1.6 5.9-3.4 5.7-3.7 8.8-4.5 8.8-2.2m-18 2.7c-3.4 2.3-9.2 5-9.7 4.5-.3-.3.6-1.1 2.1-1.7 1.4-.7 2.6-1.6 2.6-2 0-.7 2.1-1.3 5.5-1.7.6-.1.3.3-.5.9m18.3 4.7c-1.1.9-5.6 4.2-9.8 7.2-4.3 3-8.6 6.3-9.7 7.3-1.9 1.8-3.8 1.5-3.8-.7 0-1.6 4.1-4.6 11.1-8.2 3-1.5 7-3.8 8.9-5.1 4-2.7 6.5-3.1 3.3-.5m4.5 2.4c-.5 1.3-5.7 4.7-14.3 9.3l-5 2.7 2.9-3.1c1.7-1.7 3.5-3.1 4.2-3.1s1.9-.6 2.6-1.3c1.6-1.6 8-5.5 9.1-5.6.5-.1.7.5.5 1.1m-11.4 12c-1 1.3-3.1 3.5-4.6 4.9-1.7 1.6-2.8 3.8-2.8 5.3 0 3.7 2.7 3.3 4.4-.7 1.2-2.9 8.6-11 8.6-9.5 0 1.7-4.3 10.4-5.5 11.1-.8.4-1.2 1.3-1 2 .6 1.6-3.8 6.8-5 5.9-1.6-1.2-7.5-10.2-7.5-11.5 0-.7 1.2-1.8 2.8-2.5 4.6-2.1 7.9-4.1 9.2-5.7.7-.8 1.7-1.5 2.3-1.5.5 0 .2 1-.9 2.2"></path>
        <path d="M500 49.6c0 .9.5 1.4 1.2 1.2 1.8-.6 2.1-2.8.4-2.8-.9 0-1.6.7-1.6 1.6"></path>
        <path d="M533.5 120c-.3.5-.2 1 .4 1 .5 0 1.3-.5 1.6-1 .3-.6.2-1-.4-1-.5 0-1.3.4-1.6 1"></path>
    </g>
</svg>