<?xml version="1.0" encoding="UTF-8"?>
<svg id="Livello_2" data-name="Livello 2"
  xmlns="http://www.w3.org/2000/svg" viewBox="0 0 963.95 427.51" height="400">
  <defs>
    <style>
      .cls-1 {
        fill: none;
      }

      .cls-2 {
        fill: #707070;
      }

      .cls-3 {
        fill: #eeff41;
      }

      .cls-4 {
        fill: #bfc4c1;
      }

      .cls-5 {
        fill: #a2a09d;
      }

      .cls-6 {
        fill: #3e2934;
      }

      .cls-7 {
        fill: #d0cbc4;
      }

      .cls-8 {
        fill: #222010;
      }

      .cls-9 {
        fill: #121012;
      }

      .cls-10 {
        fill: #fff;
      }

      .cls-11 {
        fill: #f9f8eb;
      }

      .cls-12 {
        fill: #e5e5e1;
      }

      .cls-13 {
        fill: #525252;
      }

      .cls-14 {
        fill: #262124;
      }

      .cls-15 {
        fill: #3a726f;
      }
    </style>
  </defs>
  <g id="Livello_1-2" data-name="Livello 1">
    <g id="Oggetto_generativo" data-name="Oggetto generativo">
      <g>
        <path class="cls-10" d="M315.79,392.47c-3.36,5.42-6.81,27.15-9.47,30.77-2.04,2.78-8.81.87-11.84,1.42l9-32.19c3.84.01,8.67-.43,12.31,0Z"/>
        <g>
          <path class="cls-9" d="M225.84,348.92c1.57,0,3.17-.03,4.73,0,.94.02,1.9-.02,2.84,0,4.32.11,19.22-.89,21.78,0l-12.31,76.23c-2.85,2.19-32.32-.43-37.88-.47l-11.36-75.28c.8-1.11,23.8-.43,27.46-.47,1.65-.02,3.09,0,4.73,0Z"/>
          <path class="cls-10" d="M281.7,276c.13,2.65,2.34,5.51,0,8.52-17.52,15.61-36.67,30.69-48.77,51.13-7.55-33.63,20.32-51.76,48.77-59.66Z"/>
          <path class="cls-10" d="M283.6,297.78c-.67,2.63-2.17,5.92-3.79,8.05-1.85,2.44-38.72,31.76-41.19,32.67-.89.33-4.95,1.49-5.21-.47-.8-6.05,41.32-46.6,49.24-51.61,1.31,4.5.73,7.02.95,11.36Z"/>
          <path class="cls-14" d="M281.7,274.11c.04.62-.03,1.27,0,1.89-28.44,7.89-56.32,26.03-48.77,59.66,12.09-20.44,31.24-35.52,48.77-51.13,1.44-.05.75,1.21.95,1.89-7.92,5.01-50.04,45.56-49.24,51.61.26,1.96,4.31.8,5.21.47,2.47-.91,39.34-30.23,41.19-32.67,1.61-2.13,3.12-5.41,3.79-8.05.11,2.28-.01,3.07,0,4.73-9.63,12.09-24.88,23.2-37.4,33.14-5.26,4.17-15.19,3.89-12.78,13.26-.94-.02-1.9.02-2.84,0,3.96-5.13.17-10.46,0-13.73-2.08-39.34,17.84-49.06,51.13-61.08Z"/>
          <g>
            <path class="cls-9" d="M212.58,187.94c-7.09,17.88-6.52,33,4.26,49.24l.47-48.29c1.91,3.27,9.18,21.8,9.47,25.09,1.34,15.2-11.16,21.47-6.15,35.51,6.83-18.45,22.23-44.51,42.14-50.19.52,6.12-6.48,12.79-9.47,18.46-10.67,20.27-17.08,42.52-23.67,64.39,15.98-12.77,30.07-26.33,34.09-47.35,1.62-8.46.24-28.97,1.89-34.09.09-.29,1.42-1.88,1.89-.95-.75,23.67-.65,47.53-17.04,66.28-6.09,6.96-18.67,13.1-21.78,22.73-4.85,15.03-3.56,44.09-2.84,60.13-1.64,0-3.09-.02-4.73,0,2.01-5.92-7.76-38.8-11.84-39.77-1.85-.44-11.33,2.11-17.04.95-19-3.88-33.14-24.72-27.46-43.56,19.12-7.35,46,9.24,48.77,28.88.72,5.12-1.95,12.57-1.89,13.26.32,3.64,10.69,21.87,10.42,28.41-3.66-17.83,2.35-53.46-2.84-69.12-5.86-17.69-27.01-11.33-36.46-17.52-6.84-4.48-6.22-15.89-9.94-22.25,18.66-10.87,32.6,4.66,39.77,20.83,1.89,4.26-.16,12.09,6.63,15.15-1.49-6.2.24-16.35-.95-21.78-.84-3.83-8.97-13.95-10.42-18.94-2.64-9.13-2.24-29.87,4.73-35.51Z"/>
            <g>
              <path class="cls-10" d="M217.32,188.89l-.47,48.29c-10.78-16.24-11.35-31.36-4.26-49.24.84-.68,2.18-1.88,3.31-1.89,1.59.2,1.19,2.45,1.42,2.84Z"/>
              <path class="cls-10" d="M260.4,200.25c1.77,1.13.98,1.86.47,3.31-2.58,7.41-13.87,22.42-17.99,32.19-6.39,15.14-9.55,31.61-15.62,46.87-19.34-31.5,8.82-63.71,33.14-82.38Z"/>
              <path class="cls-10" d="M164.76,268.43l44.03,38.35c-9.98,6.33-25.59-.77-33.62-8.05-10.15-9.19-8.78-17.46-10.42-30.3Z"/>
              <path class="cls-10" d="M173.28,266.54c20.16-2.82,42.75,19.58,37.88,39.77l-44.03-37.4c.05-.88,5.31-2.25,6.15-2.37Z"/>
              <path class="cls-10" d="M178.97,226.77c15.21-5.14,32.14,14.94,32.67,28.88-12.72-7.08-23.06-17.24-33.62-26.99l.95-1.89Z"/>
              <path class="cls-10" d="M175.18,228.66l28.88,24.15c-19.03.2-26.36-5.3-28.88-24.15Z"/>
              <path class="cls-10" d="M216.84,192.68c6.37,12.85,12.37,26.39,3.79,39.77l-3.79-39.77Z"/>
              <path class="cls-10" d="M221.58,275.06c11.69,13.46.87,32.66,1.89,49.24l-1.89-49.24Z"/>
            </g>
          </g>
        </g>
        <g>
          <g>
            <path class="cls-3" d="M353.67,145.33c-8.53,28.39-10.93,89.57-6.63,118.84.72,4.87.5,8.62,6.63,7.1-.23,4.05,1.6,18.7,6.15,19.89,10.45,2.72,57.38.91,71.49.95l56.81,1.89c.09,2.49-3.46,18.21-5.21,18.94h-118.36c-11.16,3.39-4.18,53.71-6.15,64.39-4.12.59-13.43.89-15.15,4.73-7.71.48-34.94,3.86-41.19,6.63-2.25.99-1.08,1.98-2.37,3.79-3.63-.11-9.12.6-12.31,0,1.31-21.43,1.09-43.43,0-64.86-.26-5.12-.41-14.92-3.79-18.46,0-2.24.02-4.38,0-6.63-.01-1.66.11-2.45,0-4.73-.22-4.35.36-6.86-.95-11.36-.2-.69.49-1.94-.95-1.89,2.34-3.02.13-5.88,0-8.52-.03-.62.04-1.27,0-1.89-1.72-26.52-9.59-56.5-13.26-83.33-1.04-7.57-5.71-26.46-2.84-32.67,4.06-8.79,30.66-5.73,38.82-8.05,6.96,1.66,16.56,3.43,18.94,11.84,2.77,9.82,1.51,35.87,2.84,48.29,1.61,15.07,5.31,67.08,9.47,77.65,3.12,7.91,12.9,4.54,19.41,5.21-6.59-2.29-15.3,1.33-18.46-7.1-4.74-12.64-8.57-74.82-10.42-92.8-1.94-18.89,5.73-37.79-17.04-44.03l44.5-3.79Z"/>
            <path class="cls-9" d="M309.17,149.12c22.77,6.24,15.1,25.14,17.04,44.03s5.67,80.16,10.42,92.8c3.16,8.43,11.88,4.82,18.46,7.1-6.51-.67-16.3,2.71-19.41-5.21-4.16-10.56-7.86-62.57-9.47-77.65-1.33-12.43-.07-38.47-2.84-48.29-2.38-8.41-11.98-10.17-18.94-11.84-1.88-.45-9.55-.09-9-2.84,4.56.64,9.29.68,13.73,1.89Z"/>
            <path class="cls-3" d="M478.66,380.16c-.82,1.57-2.72,1.78-4.26,1.89-42.34,3.17-88.53-2.65-131.15,0,1.72-3.85,11.03-4.14,15.15-4.73.1-.01-.34,1.56.47,1.89l1.42-1.42c2.69-13.23-4.29-48.41.95-58.71.19-.37,3.96-4.13,4.26-4.26l117.42-.95-10.42,65.34c.4.48,5.25.72,6.15.95Z"/>
            <path class="cls-13" d="M486.24,381.11l1.42,6.63c-.4-.42-1.13-1.3-1.42-.95.23-4.27-4.9,2.19-4.73,4.73-.32.12-6.29,1.85-6.63,1.89-.1.01.41-1.13-1.89-.95-4.03.33-8.26-.13-12.31,0-.32,0-.63,0-.95,0-47.59,1.39-95.42-1.83-142.98.95.1-.82-.24-.86-.95-.95-3.64-.43-8.47.01-12.31,0-.62,0-1.27,0-1.89,0s-1.27.02-1.89,0c1.28-1.81.12-2.79,2.37-3.79,6.25-2.76,33.48-6.15,41.19-6.63,42.61-2.65,88.8,3.17,131.15,0,1.54-.12,3.45-.33,4.26-1.89,2.49.61,5.06.64,7.58.95Z"/>
            <path class="cls-13" d="M287.39,392.47c-1.04-.19-3.22.49-3.79-.47-.01-27.62.01-55.25,0-82.85,3.38,3.54,3.53,13.35,3.79,18.46,1.09,21.44,1.31,43.43,0,64.86Z"/>
            <path class="cls-11" d="M488.13,294l-56.81-1.89c18.69.05,37.58-1.96,56.34-.95,2.63,1.53.47,2.7.47,2.84Z"/>
          </g>
          <path class="cls-10" d="M472.98,392.47c-1.34,5.56.52,28.4-.95,31.72-1.24,2.81-10.95.68-11.36,0-1.34-2.21,1.01-26.96,0-31.72,4.05-.13,8.28.33,12.31,0Z"/>
          <g>
            <path class="cls-5" d="M553.47,190.78c-.32,0-.63,0-.95,0-1.18-4.23-1.91-5.34-4.73-8.52-.36-.41-.62-.62-.95-.95,2.53-25.01-32.61-22.99-46.4-12.31v-.95c4.17-1.2,11.78-6.61,16.57-7.58,25.24-5.08,30.93,9.29,36.46,30.3Z"/>
            <path class="cls-9" d="M546.84,181.31c.33.33.59.54.95.95-2.6,1.38-9.05-3.82-6.15-5.68.89,2.23,3.64,3.17,5.21,4.73Z"/>
            <path class="cls-9" d="M531.21,171.84l8.05,3.31c-11.04-4.74,4.47,6.8-2.37,9.94-3.95,1.81-8.73-8.96-12.78-9.94,3.45-4.71,10.17,8.31,10.89,8.05l-3.79-11.36Z"/>
            <path class="cls-9" d="M520.8,177.53c2.7-.03,7.37,2.45,7.1,5.21-.35,3.55-7.36-3.79-7.1-5.21Z"/>
          </g>
        </g>
        <g>
          <g>
            <path class="cls-10" d="M681.3,12.76c3.05,8.36,31.39,28.65,33.14,34.09,2.72,8.46-2.81,44.74,0,50.66.8,1.7,5.76,2.05,7.58,2.37,5.42,6.17-5.5,30.68-6.63,38.82-.32-9.28-.24-18.16-.95-27.46-.63-8.27,2.05-17.3-9.47-20.83-1.97-9.4,2.62-34.71,0-42.14-1.43-4.06-24.44-21.75-27.46-26.04-3.23-4.59-1.69-7.8,2.84-10.42.66,1.11.91.89.95.95Z"/>
            <path class="cls-7" d="M715.39,138.7c.27,7.85-1.36,15.3-.95,23.2.03.51,3.5,6.15,3.79,9.47.82,9.57-.6,20.15,0,29.83-.32,0-.63,0-.95,0-1.95-3.61.79-37.99-3.31-36.93l-1.42,36.93c-.63,0-1.27,0-1.89,0-.88-8.06,3.34-28.91.95-35.51-.18-.51-4.99-1.57-5.21-1.42-2.72,1.89.92,31.71-1.42,36.93-.32,0-.63,0-.95,0l-.47-19.89-5.21,17.52c3.69-17.37,8.27-34.59,4.73-52.55.37-1.1.6-2.67.95-3.79l.95,20.36c2.03-.26,6.23,1.27,7.58,0,1.84-1.74,2.11-44.87.95-50.66.16-.59.01-1.06.95-.95.71,9.3.63,18.18.95,27.46Z"/>
            <path class="cls-7" d="M714.44,46.85c-1.75-5.44-30.1-25.73-33.14-34.09,5.29,8.18,29.69,23.45,33.14,34.09Z"/>
            <path class="cls-7" d="M722.02,99.88c-1.82-.32-6.77-.67-7.58-2.37-2.81-5.92,2.72-42.2,0-50.66,3.49,10.74-1.83,43.75.95,49.71.94,2.03,4.36.73,6.63,3.31Z"/>
            <path class="cls-10" d="M704.03,142.49c3.18-10.1,6.71-20.05,9.47-30.3,1.17,5.79.89,48.92-.95,50.66-1.34,1.27-5.55-.26-7.58,0l-.95-20.36Z"/>
            <path class="cls-10" d="M710.65,201.2c-1.88-.01-3.8.01-5.68,0,2.34-5.22-1.3-35.04,1.42-36.93.22-.15,5.02.91,5.21,1.42,2.39,6.6-1.83,27.45-.95,35.51Z"/>
            <path class="cls-10" d="M717.28,201.2c-1.57,0-3.17,0-4.73,0l1.42-36.93c4.11-1.06,1.36,33.32,3.31,36.93Z"/>
            <g>
              <path class="cls-9" d="M680.35,11.82c-4.53,2.61-6.07,5.83-2.84,10.42.57,7.77-.22,15.95-6.15,21.78l-37.4-26.99c4.32-6.35,11.91-10.96,19.41-11.84,2.81-.33,9.7,2.09,10.42,1.89,1.02-.28,7.41-12.43,14.68-4.26,2.23,2.51,1.25,7.91,1.89,9Z"/>
              <path class="cls-10" d="M651.47,7.08c19.98-2.61,32.24,19.09,19.89,35.04l-35.51-24.15c-.71-3.3,12.35-10.46,15.62-10.89Z"/>
              <path class="cls-10" d="M670.41,2.35c3.56-.95,5.95.64,8.05,3.31-1.07,12.83-4.86,7.64-12.31,2.84-.8-1.68,3.68-6,4.26-6.15Z"/>
            </g>
          </g>
          <g>
            <path class="cls-10" d="M506.12,237.18c-.94.01-1.9,0-2.84,0-10.85,2.47-5.4-8.44-6.63-15.62,13.67-3.84,11.14,5.84,9.47,15.62Z"/>
            <g>
              <path class="cls-9" d="M704.97,90.41c11.52,3.53,8.84,12.57,9.47,20.83-.94-.12-.79.36-.95.95-2.76,10.25-6.29,20.2-9.47,30.3-.35,1.12-.57,2.68-.95,3.79-2.09,6.18-7.71,29.91-12.78,31.25s-18.37-1.52-22.73,0c-2.39.84-11.04,19.3-13.73,22.25.82,2.44,44.6,1.38,50.19,1.42.32,0,.63,0,.95,0,1.88.01,3.8-.01,5.68,0,.63,0,1.27,0,1.89,0,1.57,0,3.17,0,4.73,0,.32,0,.63,0,.95,0,20.5.12,41.06-.48,61.55.47-.58,2.87.77,17.85,0,18.94-.94,1.32-6.64-.38-7.58.95-.79,1.12-.8,23.54-.95,27.46-2.13,58.3.41,117.35,1.42,175.65l191.28,2.84H0l.95-2.84c68.01.4,136.06-.53,204.06,0,5.55.04,35.03,2.67,37.88.47l12.31-76.23c4.2,1.47-11.6,68.25-10.89,75.75h48.29l9-32.19c.62,0,1.27,0,1.89,0l-9,32.19c3.03-.55,9.8,1.36,11.84-1.42,2.66-3.63,6.11-25.35,9.47-30.77.71.08,1.05.12.95.95l-9,31.25h150.56l1.42-32.19c.32,0,.63,0,.95,0,1.01,4.76-1.34,29.51,0,31.72.41.68,10.12,2.81,11.36,0,1.47-3.33-.4-26.16.95-31.72,2.31-.19,1.79.96,1.89.95,1.12,3.45-1.67,9.1-.95,11.84,2.57,9.68,55.82,11.13,65.81,11.84,4.48-16.7-23.87-2.15-25.09-4.26-.95-3.21,6.7-7.76,7.58-5.68l-4.26,3.31c4.98-1.61,20.07-5.51,23.2-.47,4.81,7.75-7.49,18.38,14.2,14.2-1.3-8.12,1.34-17.2.95-25.09,9.7.45,18.94,5.47,17.99-7.58.42.22,6.44,2.27,8.05,2.84,14.66,5.18,41.55,2.78,40.24,24.15-2.74-.69-1.02-5.1-3.31-6.15-4.5-2.07-52.15,13.01-61.55,8.52v4.73l93.27-1.42.95-201.69-142.51-1.42c.12,7.06-4.34,18.76,6.15,16.1-4.17.45-5.89-.05-9.47,0,1.67-9.78,4.2-19.47-9.47-15.62,1.22,7.18-4.22,18.09,6.63,15.62-3.17,0-6.29.01-9.47,0,7.74-24.03-11.8-13.17-14.2-16.57-.56-.79.08-16.82.47-19.41,2.55-1.81,41.53,2.15,46.4,0,2.9-1.28.34-7.75,1.89-9.47,1.27-1.4,20.61-.87,24.15-.95.32,0,.63,0,.95,0,13.78-.18,27.42.8,41.19.95v9.47c2.45.89,49.61.82,52.08,0,2.72-.9,11.22-19,13.73-22.25l-84.75-1.42c-4.81-3.48-4.66-8.15-4.26-13.73.35-4.84,14.48-65.07,16.1-68.18.2-.38,3.95-4.12,4.26-4.26l113.16-.95Z"/>
              <g>
                <path class="cls-2" d="M475.35,424.67c2.29.22,4.97-.53,7.1.47,0,.41-6.98,1.39-7.1-.47Z"/>
                <g>
                  <path class="cls-10" d="M474.4,407.62c16.44,11.58,44.19,8.55,64.39,11.36,1.57.65,1.9,4.58,1.42,5.21-1.98,2.63-57.54-.54-65.81-1.42v-15.15Z"/>
                  <g>
                    <path class="cls-10" d="M583.29,395.31c9.36-.36-4.5,10.58.95,12.31,3.29,1.05,6.12-9.28,8.52-9.47,11.32,4.13-.47,6.16,1.89,13.26l12.78-4.26-11.36,1.89c6.56-10.13,15.76-8.75,22.73,0-.57,2.95-55.88,12.18-59.18,10.89-4.22-1.65-1.7-13.3-2.37-17.52.72-1.91,12.64.15,15.62-.47,2.49-.52,9.64-6.6,10.42-6.63Z"/>
                    <path class="cls-11" d="M576.67,392.47c3.74-.93,1.91,6,0,5.68-.68-.11-2.57-5.04,0-5.68Z"/>
                    <path class="cls-7" d="M588.98,398.16c.62,2.66-1.98,5.88-3.79,7.58-.38-2.46,2.55-5.62,3.79-7.58Z"/>
                    <path class="cls-4" d="M599.39,400.05c2.44-1.29,2.73,1.69.95,1.89-.11.01-1.91-1.38-.95-1.89Z"/>
                  </g>
                </g>
                <g>
                  <path class="cls-10" d="M530.27,192.68c2.12-.94,44.28-.94,46.4,0,2.28,1.01,1.21,5.15,1.42,7.1-.98,2.18-45.63,2.39-47.82,1.42s-2.12-7.58,0-8.52Z"/>
                  <g>
                    <path class="cls-10" d="M699.76,202.15c.17,0,2.67,1.89,2.84,1.89,9.63.05,71.75-3.11,74.81-.95,1.34.95-.29,13.43.95,16.1l-296.86-.47.47-15.62c72.57,1.26,145.27-1.26,217.79-.95Z"/>
                    <path class="cls-10" d="M760.37,221.08c.94-.42,8.82-.54,9.94,1.42l-.47,202.16-10.89-.47,1.42-203.11Z"/>
                    <path class="cls-10" d="M654.31,221.08c.94-.42,7.95-.5,9,1.42l-.47,202.16-9.94-.47,1.42-203.11Z"/>
                    <polygon class="cls-10" points="666.62 221.08 757.05 221.56 756.58 424.67 665.2 424.2 666.62 221.08"/>
                  </g>
                  <g>
                    <path class="cls-12" d="M662.83,177.53c3.19.5.17,3.83-.47,5.21-2.71,5.8-7.96,13.21-11.84,18.46l12.31-23.67Z"/>
                    <g>
                      <path class="cls-10" d="M593.71,92.3h112.68c5.51,4.98,7.96,9,7.1,16.57-.4,3.58-18.13,60.62-19.89,63.44-2.33,3.74-4.85,2.71-8.05,4.26l-108.89-.95c-5.52-4.09-4.13-7.81-3.31-13.73,1.12-8.14,12.52-58.71,15.15-64.39,1.19-2.56,2.8-3.86,5.21-5.21Z"/>
                      <path class="cls-7" d="M704.5,93.25c1.03,12.79.62,25.98,0,38.82-.79-12.88-.79-25.94,0-38.82Z"/>
                    </g>
                  </g>
                </g>
              </g>
            </g>
          </g>
        </g>
        <g>
          <path class="cls-15" d="M392.49,101.77c6.83,1,23.24,27.31,25.09,27.46,3.39.28,3.59-7.34,4.26-9.47,13.49,13.32,16.22,31.7,20.36,49.24l46.87,1.89c-21.28,5.74-41.39,6.16-62.97,10.42-5.87-1.55-7.59-32.12-9-38.35-.29-1.27.56-3.34-1.89-1.89.47,6.4,3.93,40.74,9.94,42.14l70.07-12.31c.29,2.52,7.2,14.77,7.1,15.62-.46,4.2-24.08,7.94-26.51,12.78-14.01,5.27-27.81,10.41-41.66,16.1-17.7,5.02-24.09,15.45-38.82-2.37-13.68-16.54-16.45-39.55-24.62-58.71.95,15.38,20.05,67.23,35.51,70.54,9.62,2.06,18.66-5.11,26.99-8.52,1.39,3.66-1.16,10.24-.95,13.26l-69.12,32.19c-.93,1.22-3.33,1.58-3.79,1.89-4.8,3.24-5.32,1.21-5.68,7.58-6.12,1.52-5.91-2.23-6.63-7.1-4.3-29.27-1.9-90.45,6.63-118.84,7.8-25.94,15.96-32.6,38.82-43.56Z"/>
          <path class="cls-9" d="M421.85,119.76c-.67,2.13-.87,9.75-4.26,9.47-1.85-.15-18.27-26.46-25.09-27.46,4.35-2.09,8.76-3.55,12.31-7.1-5.13.34-7.06-12.36-7.58-17.04-2.88-25.98.03-41.59,29.83-38.35,17.47,1.9,52.58,24.75,23.67,37.88-2.43-8.64-13.91-21.78-23.67-17.99-4.27,1.66-.76,12.08-4.73,13.26-1.1.33-8.9-4.84-10.89,1.42-1.53,4.81,3.25,7.79,2.84,10.42s-13.51,18.05-17.99,17.99l21.31,24.15c1.23-.1,7.49-21.85,4.26-23.2,18.32,5.22,19.92-3.9,25.09-18.46-.19,8.96-3.7,19.2-13.26,21.78-2.64.71-6.65-1.34-7.58-.95-1.6.68-3.56,11.98-4.26,14.2Z"/>
          <path class="cls-9" d="M489.08,170.9c3.76-1.01,7.65-1.77,11.36-2.84v.95c-7.04,5.46,6.23,13.45,2.84,19.41-1.89,3.31-22.76,9.12-27.46,10.89,2.44-4.85,26.05-8.58,26.51-12.78.09-.85-6.81-13.11-7.1-15.62l-70.07,12.31c-6.02-1.4-9.47-35.74-9.94-42.14,2.46-1.44,1.61.62,1.89,1.89,1.4,6.23,3.13,36.8,9,38.35,21.58-4.25,41.69-4.68,62.97-10.42Z"/>
          <path class="cls-9" d="M432.26,229.61c.14,2.07.39,6.46,2.37,7.58,19.68.02,39.47-.09,59.18,0,3.18.01,6.3,0,9.47,0,.94,0,1.9.01,2.84,0,3.57-.05,5.3.45,9.47,0,1.21-.13,7.57.4,7.58-.47,0-.46-7.91-1.5-9-1.42-1.36-2.19.33-1.83,1.89-1.89,32.22-1.27,46.79,26.42,30.77,53.5l29.35,91.85c-.16.87-8.06,4.56-9.47,5.21-2.95,1.36-11.28,4.75-14.2,5.68-3.44,1.09-12.23,4.49-14.2,2.37-4.6-4.93-10.9-32.35-17.52-39.3l-1.42,39.3c-3.62-.4.81-11.31.95-14.2.31-6.43-.76-12.56-.95-18.94l-3.79,22.73c-.38.73-4.01-.67-5.68-.47-8.82,1.06-14.85,1.09-23.67,0-2.52-.31-5.08-.33-7.58-.95-.91-.22-5.75-.46-6.15-.95l10.42-65.34-117.42.95c-.3.13-4.07,3.89-4.26,4.26-5.24,10.29,1.75,45.48-.95,58.71l-1.42,1.42c-.82-.34-.38-1.91-.47-1.89,1.97-10.68-5.01-61,6.15-64.39h118.36c1.75-.73,5.3-16.45,5.21-18.94,0-.14,2.16-1.31-.47-2.84-18.76-1.02-37.66,1-56.34.95-14.11-.04-61.04,1.77-71.49-.95-4.55-1.18-6.39-15.83-6.15-19.89.37-6.37.88-4.34,5.68-7.58,40.86,21.52,93.09,3.82,137.77,10.42l.95-2.84c-37.88,2.69-78.77-.7-114.58,0-1.23-2.47-9.11-1.81-12.31-2.84-.56-.18-10.94-4.5-8.05-6.63l69.12-32.19Z"/>
          <path class="cls-14" d="M359.35,263.69c.46-.31,2.85-.68,3.79-1.89-2.89,2.13,7.48,6.45,8.05,6.63,3.2,1.03,11.08.37,12.31,2.84,35.8-.7,76.7,2.69,114.58,0l-.95,2.84c-44.69-6.6-96.92,11.1-137.77-10.42Z"/>
          <path class="cls-9" d="M434.16,215.4c-.06.03.34.42-.95.95-8.32,3.41-17.36,10.58-26.99,8.52-15.46-3.31-34.56-55.17-35.51-70.54,8.17,19.16,10.94,42.17,24.62,58.71,14.73,17.81,21.12,7.39,38.82,2.37Z"/>
          <g>
            <path class="cls-9" d="M435.58,68.63c12.16-2.59,2.69,5.73-3.79,4.73-2.13-2.17,3.04-4.58,3.79-4.73Z"/>
            <path class="cls-9" d="M437.47,76.21c3.49-1.53,5.72,3.36,3.79,4.73-2.82,2.02-8-2.89-3.79-4.73Z"/>
            <path class="cls-9" d="M414.75,76.21c1.86-1.18,4.36,3.05,4.26,3.31-.64,1.67-4.86-2.04-4.26-3.31Z"/>
            <path class="cls-6" d="M438.42,90.41l4.26,2.37c-.47,1.79-6.78-1.3-4.26-2.37Z"/>
            <path class="cls-1" d="M566.72,383.95c3.33,1.86,4.22,5.8,7.58,7.58.95,13.04-8.29,8.03-17.99,7.58-.15-2.91-1.31-7.47-3.79-9.47,2.93-.93,11.25-4.32,14.2-5.68Z"/>
            <path class="cls-1" d="M509.91,381.11c2.11,3.1,1.79,4.03,1.89,7.58-11.44,2.74-4.75,12.67-19.41,9.47-2.6-.57-6.48-4.38-8.05-6.63-.12-.17.14-1.11-.95-.95.21-.12,2.33-3.17,2.84-3.79.3-.35,1.02.53,1.42.95l-1.42-6.63c8.82,1.09,14.85,1.06,23.67,0Z"/>
          </g>
          <path class="cls-8" d="M486.24,386.79c-.51.62-2.63,3.67-2.84,3.79-.61.34-1.23.7-1.89.95-.17-2.55,4.96-9.01,4.73-4.73Z"/>
          <g>
            <path class="cls-9" d="M512.28,399.1c8.99-2.12-4.07,5.86-4.73,7.58l11.84-3.31-16.57,6.15c.58-1.83,8.78-10.25,9.47-10.42Z"/>
            <g>
              <path class="cls-9" d="M511.8,388.69c.46,15.36-25.75,15.4-27.46,2.84,1.57,2.24,5.45,6.06,8.05,6.63,14.67,3.2,7.97-6.73,19.41-9.47Z"/>
              <polygon class="cls-10" points="508.49 391.53 510.86 392.95 506.6 397.21 505.65 394.37 508.49 391.53"/>
            </g>
          </g>
        </g>
      </g>
    </g>
  </g>
</svg>