<?xml version="1.0" encoding="UTF-8"?>
<svg id="Livello_2" data-name="Livello 2"
  xmlns="http://www.w3.org/2000/svg" viewBox="0 0 799.85 345.61" height="400">
  <defs>
    <style>
      .cls-1 {
        fill: none;
      }

      .cls-2 {
        fill: #fbe4dc;
      }

      .cls-3 {
        fill: #010000;
      }

      .cls-4 {
        fill: #eeff41;
      }

      .cls-5 {
        fill: #2a2614;
      }

      .cls-6 {
        fill: #e6e6e6;
      }

      .cls-7 {
        fill: #3a726f;
      }

      .cls-8 {
        fill: #252326;
      }

      .cls-9 {
        fill: #525252;
      }

      .cls-10 {
        fill: #525252;
      }

      .cls-11 {
        fill: #c8c3ad;
      }

      .cls-12 {
        fill: #ffffff;
      }

      .cls-13 {
        fill: #ff5cd6;
      }

      .cls-14 {
        fill: #1d1716;
      }

      .cls-15 {
        fill: #babbbe;
      }

      .cls-16 {
        fill: #adaca8;
      }

      .cls-17 {
        fill: #747274;
      }

      .cls-18 {
        fill: #eeff41;
      }

      .cls-19 {
        fill: #727368;
      }

      .cls-20 {
        fill: #262820;
      }

      .cls-21 {
        fill: #ff5cd6;
      }

      .cls-22 {
        fill: #ff5cd6;
      }

      .cls-23 {
        fill: #fbf9f8;
      }

      .cls-24 {
        fill: #4b464a;
      }

      .cls-25 {
        fill: #18160b;
      }

      .cls-26 {
        fill: #ff5cd6;
      }
    </style>
  </defs>
  <g id="Livello_1-2" data-name="Livello 1">
    <g id="Oggetto_generativo" data-name="Oggetto generativo">
      <g>
        <g>
          <path class="cls-3" d="M114.93,67.06c-.21-6,.44-5.86,2.15-10.74,1.58,1.96,8.09,12.02,7.16,13.96-.98,2.05-7.53-.21-8.95,2.51-.7-.55-.32-4.51-.36-5.73Z"/>
          <path class="cls-23" d="M148.58,197.39l12.89,77.34c-1.59-.27-3.96.05-5.73,0l-16.47-63.01c.68-.36,2.15-3.16,2.15-3.58.03-5.9-.1-10.48-2.15-16.11,2.41,1.39,7.46,3.69,9.31,5.37Z"/>
        </g>
        <g>
          <path class="cls-8" d="M139.28,211.71l16.47,63.01c-.82-.02-1.93.01-2.86,0-1.38-21.18-8.83-41.49-15.04-61.58-.12-.38.12-1.05,0-1.43h1.43Z"/>
          <g>
            <path class="cls-7" d="M150.02,198.82c.8-1.93-1.36-1.36-1.43-1.43-1.85-1.68-6.9-3.98-9.31-5.37,2.05,5.64,2.18,10.21,2.15,16.11l-3.58,1.79c-13.39-42.98-32.25-90.4-73.4-113.5l25.42,21.12c22.3,23.66,39.03,65.39,47.98,94.16.12.38-.12,1.05,0,1.43-8.7,7.1-19.91,7.73-29.36,1.79-9.46-32.71-27.28-62.27-39.38-93.81-7.31-19.05-19.75-46.86,13.25-23.99,16.6,11.51,28.57,30.68,39.38,47.26-6.49-22.43-13.01-46.16-9.67-69.82.36-2.58.53-6.02,2.86-7.52.04,1.22-.34,5.18.36,5.73,1.42-2.72,7.97-.46,8.95-2.51s-5.58-12-7.16-13.96c2.18-6.24,10.69-20.96,18.98-18.62,3.07.87,17.05,23.62,17.54,26.85.57,3.74-1.85,11.86-2.86,15.75l7.16-2.86c.75,1.4-2.75,27.26-2.86,31.51-.62,22.17,5.02,64.86,1.43,83.78-.84,4.41-2.11,5.44-6.44,6.09Z"/>
            <g>
              <g>
                <path class="cls-20" d="M118.87,85.68c7.25,1.71,6.3,27.27,2.86,27.93l-7.52-7.52,6.8,5.37c4.27-7.76,2.48-18.3-2.15-25.78Z"/>
                <path class="cls-3" d="M149.66,147.98c2.74.05-3.94,4.92-4.3,5.73-2.18-1.01,3.38-5.52,4.3-5.73Z"/>
              </g>
              <g>
                <path class="cls-12" d="M141.42,208.13c0,.42-1.47,3.22-2.15,3.58h-1.43c-8.95-28.78-25.68-70.5-47.98-94.16l-25.42-21.12c41.15,23.1,60.01,70.52,73.4,113.5l3.58-1.79Z"/>
                <path class="cls-25" d="M86.64,134.37c3.33.51-5.27,3.43-6.09,4.65-.92-2.39,5.55-4.74,6.09-4.65Z"/>
                <path class="cls-25" d="M113.14,197.39c1.05-.08,3.3-.41,2.15,1.43l-6.09,1.07c-.35-.98,3.62-2.48,3.94-2.51Z"/>
              </g>
            </g>
          </g>
        </g>
        <g>
          <path class="cls-14" d="M162.91,173.76l9.31,100.61c2.32,1.01,1.48-6,1.43-7.16-1.29-28.66-3.82-51.28-1.43-80.56,1.31,4.1.23,9.24,0,13.61-1.26,24.5,1.32,48.89,2.15,73.4l3.58-51.2s.84-.11.72.72l-1.43,51.2,32.58.36c1.27,1.94-2.95,1.36-3.94,1.43-13.53.94-29.18,0-42.96,0-.1-.34-1.33-1.42-1.43-1.43l-12.89-77.34c.07.07,2.23-.5,1.43,1.43l12.89,73.4c-.33,3.51,7.96,3.19,8.59,1.43-3.66-33.17-8.16-66.55-10.02-99.89.45.06,1.14-.12,1.43,0Z"/>
          <path class="cls-23" d="M172.22,186.65c-2.39,29.28.14,51.9,1.43,80.56.05,1.16.89,8.17-1.43,7.16l-9.31-100.61c1.57.63,3.38,5.21,5.37,5.01l5.37-6.8c-.69,4.83-1.04,9.83-1.43,14.68Z"/>
          <path class="cls-23" d="M175.8,218.87c.35,1.19,1.52,1.42,2.15,3.58l-3.58,51.2c-.83-24.5-3.41-48.9-2.15-73.4.13,7.53,1.6,11.85,3.58,18.62Z"/>
          <g>
            <path class="cls-7" d="M230.93,18.37c.15-1.67-5.82,1.26-6.09,1.43-7.5,4.91-3.45,4.13-1.43,12.17.71.31,3.53-4.24,3.94-5.01,1.61.74.37,2.82,0,3.94-8.4,25.7-16.15,51.73-23.63,77.69l-10.02,11.1c.36,1.27,5.91,1.95,7.16,1.79,2.95-.38,30.56-42.46,28.64-17.54-.88,11.5-8.27,39.19-11.46,51.56-3.91,15.2-16.2,61.21-31.51,66.95l-7.52-.72c3.6-41.58,18.53-80.01,45.47-112.07l1.79-5.37c-6.13,11.13-15.17,20.44-21.84,31.15-16.44,26.41-21.89,51.71-26.49,78.05-.25,1.42,2.99,4.95-2.15,5.37-1.98-6.77-3.45-11.09-3.58-18.62.23-4.37,1.31-9.5,0-13.61.4-4.85.74-9.85,1.43-14.68l-5.37,6.8c-1.99.2-3.8-4.38-5.37-5.01-.29-.12-.98.06-1.43,0-1.12-20.07-2.32-36.8.72-56.93,6.98-46.24,31.81-88.55,73.4-111.35,1.49.68-4.12,11.67-4.65,12.89Z"/>
            <g>
              <path class="cls-3" d="M230.93,18.37c-1.19,2.73-2.22,6.06-3.58,8.59-.41.77-3.22,5.32-3.94,5.01-2.02-8.04-6.07-7.26,1.43-12.17.26-.17,6.24-3.1,6.09-1.43Z"/>
              <path class="cls-3" d="M200.86,121.48c-1.25.16-6.8-.52-7.16-1.79l10.02-11.1c-1.18,4.11-1.15,8.83-2.86,12.89Z"/>
              <path class="cls-12" d="M196.92,55.61c-13.16,36.84-19.7,75.44-22.2,114.57-.55-6.26-.86-14.93-.36-21.12.24-2.98,2.49-10.46,2.86-13.61.33-2.78-.35-7.51,0-10.02,2.29-16.27,8.62-44.61,14.32-59.43,1.1-2.85,3.75-7.19,5.37-10.38Z"/>
              <g>
                <path class="cls-12" d="M186.54,222.45c-3.01,1.13-4.4,1.98-7.88.72.13-.83-.7-.67-.72-.72-.63-2.16-1.8-2.39-2.15-3.58,5.14-.42,1.9-3.95,2.15-5.37,4.61-26.35,10.06-51.65,26.49-78.05,6.67-10.71,15.71-20.02,21.84-31.15l-1.79,5.37c-26.94,32.05-41.87,70.48-45.47,112.07l7.52.72Z"/>
                <path class="cls-3" d="M216.25,147.98c-1.09,14.65-2.06,17.83-15.4,8.95l15.4-8.95Z"/>
                <path class="cls-25" d="M197.64,192.38c1.05-.09,3.3-.41,2.15,1.43l-9.67,3.22c-.3-.86,6.39-4.56,7.52-4.65Z"/>
              </g>
              <path class="cls-25" d="M200.5,52.03c2.18,1.26,5.04,5.27,5.01,7.88-1.96-2.29-4.19-4.92-5.01-7.88Z"/>
            </g>
          </g>
        </g>
      </g>
      <g>
        <path class="cls-26" d="M584.67,144.4c2.48-.29,6.75-.18,9.31,0,1.77.12,3.59-.09,5.37,0l.36,3.58c-5.15.68-13.52-1.27-16.83.72,3.68-.78,13.29,1.05,16.11,0l-2.15,17.19c-4.28-.04-8.61-.05-12.89,0l-3.58-21.12c.53-.74,3.27-.24,4.3-.36Z"/>
        <path class="cls-10" d="M599.71,147.98c.1.76-.36.58-.72.72-2.82,1.05-12.43-.78-16.11,0,3.31-1.99,11.68-.04,16.83-.72Z"/>
        <g>
          <path class="cls-7" d="M593.98,144.4c-2.56-.18-6.83-.29-9.31,0,1.07-6.59-3.95-10.9-5.73-16.83-.79-2.64-.41-6.62-.72-9.31-.09-.78-2.11-1.16-2.15-1.43-.08-.58,6.43-8.12,7.52-8.95,1.52-1.16,5.4-1.51,6.44-2.15.83-.5-.11-2.37.72-2.86.42-.25,1.44,2.66,2.15,2.86,1.44.41,4.23-.39,5.73,0,3.7.97,4.15,3.7,8.23,1.79-3.38,2.52-.83,6.19-1.43,10.02-1.78,11.39-7.94,16.87-11.46,26.85Z"/>
          <path class="cls-3" d="M591.47,117.19c2.73.12.67,19.38-3.94,10.38-1.76-3.43,1.97-7.45,3.94-10.38Z"/>
        </g>
      </g>
      <g>
        <path class="cls-3" d="M341.21,31.98h.72c6.38,10.98,26.41,4.77,27.21,8.95l-21.84,21.84c-1.25-.53-2.44-18-2.51-20.41-.05-1.61,2.16-3.37,2.15-3.58-.04-.84-6-4.69-5.73-6.8Z"/>
        <g>
          <path class="cls-8" d="M341.92,31.98h-.72l-1.79-1.43-70.17,67.31c-7.2,8.48-19.57,1.77-17.54-8.23,1.21-5.96,23.67-26.04,22.56-6.8l62.3-60.15c8.52-4.9,13.11,7.5,18.98,11.82-4.03-.25-10.93-11.19-13.25-11.82-4.44-1.2-9.23,3.5-3.58,6.44l2.86-4.3c.25,4.3-2.09,2.95.36,7.16Z"/>
          <path class="cls-23" d="M326.53,34.12c2.76,1.57,5.77-1.28,7.16-1.43.59-.07,1.51-.18,1.79.36l-59.08,56.21c-4.5.63-3.51-9.13-.72-2.15l-.36-3.94"/>
          <path class="cls-23" d="M267.09,75.66c4.92-.92,6.35,4.14,5.37,8.23-.88,3.65-10.74,8.57-12.17,12.89,1.94-.08,15.02-14.86,13.61-5.73-.54,3.51-14.49,15.22-20.05,5.01-3.37-6.19,9.55-19.72,13.25-20.41Z"/>
          <path class="cls-23" d="M334.41,26.96c7.78-.8-.84,7.19-5.01,6.44-1.78-.88,4.58-6.4,5.01-6.44Z"/>
        </g>
      </g>
      <g>
        <g>
          <path class="cls-8" d="M361.97,106.45c4.65,0,9.31,0,13.96,0,3.54,5.75,10.49,52.97,12.89,54.42.62.38,13.6,2.23,14.32,2.15,1.12-.13,7.14-5.63,8.95-6.44,12.09-5.42,45.99-11.1,51.56-21.12.79-1.43.41-4.55,1.07-6.09,3.05,3.54-2.33,10.1-5.01,12.17-7.4,5.71-48.78,13.23-50.48,18.98-.14.48,1.71,3.56.36,4.65l-6.44-1.43v9.31c3.19,1.73,6.12-3.23,7.16-2.86.45.16,1.03,3.16,2.15,3.58,1.27.48,24.17.24,27.21,0,14.81-1.19,44.54-7.81,46.9-25.78h.72c-.07,5.15-4.16,11.07-7.88,14.32-2.06,1.8-6.17,3.16-8.59,4.65,2.63,2.52,6.53.39,9.31.36,4.74-.05,9.59.22,14.32,0v1.43c-7.46.23-19.9-1.41-26.14-.72-3.97.44-13.62,4.92-19.33,5.73-11.92,1.69-23.84.91-35.8,1.43-1.14.05-2.04-1.12-1.79,1.43-2.33-6.16-7.38-1.08-11.82-.72-1.47.12-1.89-2.77-6.09-.72-.5.24-.89.62-1.43.72-4.76-9.64-14.3-66.67-17.54-68.03l-83.06.72c3.14,19.22,8.56,38.57,12.53,58-.04-.09-1.4-1.34-1.43-1.43-.79-2.13-.81-11.83-3.94-11.46-.73.09-9.41,9.21-8.95,11.46-.36-.11-.97.05-1.43,0-.58-4.48,11.24-13.07,11.46-13.96.93-3.74-11.75-41.56-10.38-43.32,24.15-.55,48.55-1.42,72.68-1.43Z"/>
          <g>
            <path class="cls-18" d="M394.2,178.05c-.47,0-.96,0-1.43,0,.2-.93-.36-1.42-.72-2.15.54-.1.93-.47,1.43-.72l.72,2.86Z"/>
            <g>
              <path class="cls-23" d="M480.13,167.31c-2.78.03-6.68,2.16-9.31-.36,2.43-1.49,6.53-2.85,8.59-4.65l.72,5.01Z"/>
              <path class="cls-23" d="M407.44,160.87c1.24,0,1.23,2.87,0,2.86s-1.23-2.87,0-2.86Z"/>
            </g>
            <g>
              <path class="cls-13" d="M411.38,176.62v.72c-5.63.08-11.47.64-17.19.72l-.72-2.86c4.19-2.05,4.62.84,6.09.72,4.43-.37,9.49-5.45,11.82.72Z"/>
              <path class="cls-23" d="M390.26,162.3c3.32-1.43,4.7,2.81,6.44,3.58.57.25,3.11-2.17,5.37.36,2.98,3.32-4.49,14.26-5.37,3.22-3.62,12.48-8.58-6.24-6.44-7.16Z"/>
              <path class="cls-23" d="M396.7,163.02c.27-.17,2.09-.13,2.51.36-1.19,2.12-4.13.69-2.51-.36Z"/>
            </g>
          </g>
        </g>
        <g>
          <path class="cls-23" d="M392.05,175.91c.36.73.92,1.22.72,2.15-28.03.36-56.08,1.13-84.14.72-.71-.28-3.97-10.33-4.65-12.17-3.97-19.43-9.39-38.78-12.53-58l83.06-.72c3.25,1.36,12.79,58.39,17.54,68.03Z"/>
          <path class="cls-11" d="M335.12,142.97c4.97-.57,8.72,8.32,3.58,10.02-7.69,2.54-10.09-9.28-3.58-10.02Z"/>
        </g>
      </g>
      <g>
        <g>
          <path class="cls-26" d="M162.91,276.16c13.79,0,29.43.94,42.96,0,2.66,6.84,2.28,12.37.72,19.33-3.67,1.24-1.08,1.4-1.43,2.15-2,4.28-1.69,8.06-2.86,12.17-.06.22.06.5,0,.72-1.14,3.92-3.48,10.59-5.01,15.75-.29.99-.42,1.88-.72,2.86-.73,2.38-2.81,11.67-3.58,12.89-.53.83-1.02,1.53-1.79,2.15-12.75.73-25.63-.66-38.31-.72l-17.19-59.08c.28-2.58-.71-5.92.72-8.23h26.49Z"/>
          <path class="cls-9" d="M152.88,274.72c.93.01,2.04-.02,2.86,0,1.77.05,4.14-.27,5.73,0,.1.02,1.33,1.09,1.43,1.43h-26.49c.14-.23-.31-1.17.36-1.43,5.37.06,10.75-.09,16.11,0Z"/>
        </g>
        <g>
          <path class="cls-3" d="M263.87,342.03c-.32.01-1.32,2.04-5.01,2.15h-57.29c-2.46-.19-5.59-2.44-6.44,1.43-65-.07-130.09-1.44-195.13-.72l1.43-1.43c50.48.16,100.98-.21,151.45,0,12.68.05,25.56,1.45,38.31.72.77-.62,1.26-1.32,1.79-2.15,7.65-1.19,65.24,1.97,66.59-1.07.29-.65.09-10.78-.36-11.1l-62.66-.72c.3-.99.42-1.88.72-2.86l68.03-1.07-1.07-13.96-61.94-.72c.06-.22-.06-.5,0-.72l63.01-1.79c-.41-2.04,1-9.46-1.07-10.38-7.09-3.15-48.48,2.39-59.08,0,.35-.75-2.24-.91,1.43-2.15,9.48-3.2,35.19-.39,46.19-.72,9.19-.28,13.29.76,10.74-10.02-9.53-1.36-41.69,3.58-48.69.72-1.46-.6-1.46-2.98,0-3.58,7.11-2.9,40.94,2.2,50.84,0,.99,5.25,3.78,42.91,2.51,44.75-.61.89-3.49-.42-4.3,1.43-.89,2.04.66,11.03,0,13.96Z"/>
          <g>
            <path class="cls-23" d="M202.29,310.53l61.94.72,1.07,13.96-68.03,1.07c1.53-5.17,3.87-11.83,5.01-15.75Z"/>
            <path class="cls-16" d="M202.65,312.68c20.34.69,40.97-1.41,61.22,1.07l-31.15.36-30.07-1.43Z"/>
            <path class="cls-15" d="M239.88,318.4c7.73.01,15.89.8,23.63,1.43l-60.51-.36c12.22.13,24.71-1.1,36.88-1.07Z"/>
          </g>
          <g>
            <path class="cls-6" d="M192.98,342.03c.77-1.22,2.86-10.51,3.58-12.89l62.66.72c.45.32.64,10.45.36,11.1-1.35,3.04-58.95-.12-66.59,1.07Z"/>
            <path class="cls-15" d="M198.35,336.31c11.71.68,23.87-1.4,35.45,1.07-11.46,0-24.27,1.88-35.45-1.07Z"/>
            <path class="cls-15" d="M234.87,336.31l20.41,1.07c-5.46-.04-13.84,1.29-18.98.36-1.03-.19-2.51.38-1.43-1.43Z"/>
          </g>
          <g>
            <path class="cls-23" d="M202.29,309.81c1.18-4.11.86-7.89,2.86-12.17,10.6,2.39,51.98-3.15,59.08,0,2.07.92.67,8.35,1.07,10.38l-63.01,1.79Z"/>
            <path class="cls-15" d="M206.23,301.93l56.21,1.07c-16.41-1.07-38.26,2.66-54.06.36-.82-.12-2.61.15-2.15-1.43Z"/>
            <path class="cls-19" d="M205.51,307.66c16.82.23,33.68-.47,50.48.36-16.77.37-33.76,1.06-50.48-.36Z"/>
          </g>
        </g>
      </g>
      <g>
        <path class="cls-23" d="M322.59,264.7c-.15,4.97-1.94,12.56-3.58,17.19-.72-2.57-1.42-14.51-.72-16.11.82-1.85,3.74-.69,4.3-1.07Z"/>
        <g>
          <path class="cls-3" d="M585.39,181.63c-.57,0-.76-.73-2.15-.72-2.28.02-4.95.7-6.44.72-.57,0-.76-.73-2.15-.72-7.86.1-15.78-.37-23.63.36l-.72,161.47c-.33-.01.93.85-.72.72v-79.48c0-27.65.89-55.46-1.07-83.06l-41.89,1.07-.72,80.92c.65,1.9,31.66.97,35.8,1.07.02.98-.74.69-1.43.72-2.97.1-18.49-.82-19.33,1.07v77.69c-.08,0-.34.09-1.43,0v-78.41c-.52-.74-5.19-.27-6.44-.36-.94-.07-1.92.04-2.86,0-16.93-.64-34.57-.13-51.56,0-1.38.01-1.58.71-2.15.72-1.37.01-4.15-.74-6.44-.72-.95.01-1.92,0-2.86,0-3.55.04-27.23-.77-27.93,1.07l11.46,33.66c-.34,1.38-7.34,3.16-7.88,4.3-2.31,4.93,9.35,25.23,7.88,31.51-1.48,6.29-12.92,6.4-17.9,7.52-1.6.36-4.77,1.82-7.16,2.15-10.49,1.42-16.88-.06-26.49,0-.1-.34-1.33-1.42-1.43-1.43,5.94-11.48,14.79-3.21,21.84-3.58,4.26-.22,16.53-6.4,20.05-9.31,10.64-8.81,5.49-9.61,1.79-20.41-.94-2.73,2.78-3.76-1.79-3.94l1.79-1.07c-1.92-1.56-16.15,2.66-16.47,3.58.4,3.33,3.16,9.49,3.58,12.17.12.74-4.12-.78,0,2.86-.4.99-5.94-2.73-1.07,2.51-1.44-2.23-7.54-.41-7.52,1.07.02,1.35,7.76,2.34,6.44,5.73-1.58,4.07-8.09-6.41-11.46-2.15l4.65,3.22-6.8-3.22c7.1-5.97,16.08-7.91,12.17-19.33-2.32-6.78-7.45.92-10.74-2.86-2.61-5.97-13.52-41.93-16.83-44.04-.77-.49-17.45.43-18.26,1.07-1.44,1.14-7.21,31.59-7.88,35.8-.26,1.62-2.12,3.03-2.15,3.22h-.72c-1.77-1.92-5.68.07-6.44,0-.47-.04-.96,0-1.43,0-.34,0-2.62-2.82-6.09-1.43-1.81.72-2.89,8.26-4.3,10.02-1.72-3.62.32-7.21,1.79-9.67l-15.4-4.65c-.32,4.14-1.91,9.75-4.65,12.89-.03-3.94,3-8.52,3.58-11.82.67-3.78,1.25-13.86,1.43-18.26,1.27,0,.33,1.95,1.07,2.15s.94-1.78,1.07-2.15c1.64-4.62,3.43-12.22,3.58-17.19.19-.13,2.45.06.72-.72,5.64-13.31,16.93-69.32,29.72-74.47,18.31.1,37.24-4.05,55.5-2.86,17.23,1.12,36.14,7.64,54.06,6.44.39,6.23-2.04,17.68-8.59,20.05-15.23,5.5-49.85.4-64.45,6.44-.34.14-1.07.91-1.79,1.07-.08,1.4,4.27,16.13,6.09,15.4l-4.3-15.04,65.88-7.16c8.63-3.56,7.64-20.09,8.59-20.77,1.33-.94,18.58,1.1,19.69-7.16,3.26,10.35,3.28,35.69-10.74,39.03,3.63,2.02,26.49-1.21,27.57-.36,5.18,4.1-1.88,1.44-2.15,1.43-31.23-1.08-62.62.53-93.81,1.43-1.7,1,13.06,32.76,14.32,36.52h85.21l1.07-81.99c-.64-.91-19.4-.4-22.2-.36-24.78.34-50.02,2.37-74.47,2.86-7.4.15-54.57-2.32-56.93-.72-1.01.69.65,3.65-1.43,3.58-1.28-1.07,1.11-3.59-.72-4.3-6.67-2.59-37.09,2.98-42.61-1.43-.23-.92-1.11-1.23-1.43-2.15-.2-.56-.96-9.13-1.43-11.46-.09-.44.09-.99,0-1.43.69,1.84,3.94,11.89,4.65,12.17,28.06.42,56.11-.36,84.14-.72.47,0,.96,0,1.43,0,5.72-.08,11.56-.63,17.19-.72,7.11-.1,15.69-1.58,22.56-.72.43.05,2.46,2.83,2.86,2.86,58.84,5.07,123.88-2.48,183.31.72,7.61-.87,12.32-8.89,3.94-12.89v-1.43c6.71,1.55,7.51,11.73,1.79,14.32-2.64,1.2-34.69,1.37-40.46,1.43Z"/>
          <g>
            <polygon class="cls-26" points="366.63 238.2 376.65 263.98 359.83 262.91 366.63 238.2"/>
            <g>
              <path class="cls-23" d="M482.99,181.63c.18,1.19.39,3.25.72,4.3-1.11,8.26-18.36,6.22-19.69,7.16-.95.67.04,17.21-8.59,20.77l-65.88,7.16,4.3,15.04c-1.82.73-6.17-13.99-6.09-15.4.72-.17,1.45-.93,1.79-1.07,14.59-6.05,49.21-.94,64.45-6.44,6.56-2.37,8.98-13.82,8.59-20.05-17.92,1.19-36.83-5.32-54.06-6.44v-2.15c24.45-.5,49.69-2.53,74.47-2.86Z"/>
              <g>
                <path class="cls-17" d="M393.84,188.08c1.39-.12,4.81-.5,5.73.72-13.55,1.6-43.18,3.6-41.17,23.27l37.24,80.2,13.25,1.07,2.86-1.43c-1.28,3.76-13.21,3-15.75,2.15-4.23-1.42-33.2-71.6-38.31-80.56-3.52-19.16,22.06-24.26,36.16-25.42Z"/>
                <path class="cls-5" d="M439.67,196.67c3.88.54-4.82,3.33-6.09,1.79.59-.87,5.77-1.83,6.09-1.79Z"/>
                <path class="cls-5" d="M384.53,224.6c.46-.16,4.17,5.41,2.15,6.44l-2.15-6.44Z"/>
                <path class="cls-5" d="M394.56,238.2c.82-.24,3.62,6.16,2.86,6.44l-1.79-2.51-1.07-3.94Z"/>
                <path class="cls-5" d="M446.83,195.24c.91.02,2.6-.04,2.15,1.43l-6.09-.36c1.03.08,3.73-1.08,3.94-1.07Z"/>
                <path class="cls-5" d="M390.97,239.64l2.15,6.44c-.91-1.43-4.05-4.94-2.15-6.44Z"/>
                <path class="cls-5" d="M385.96,206.7c.66-.03,1.4-.22,1.79.36.19.51-5.23,3.22-6.44,2.15-.15-.46,4.36-2.49,4.65-2.51Z"/>
                <path class="cls-5" d="M378.8,211.71c1.23-.65,4.1,4.65,2.15,5.73l-2.15-5.73Z"/>
                <path class="cls-5" d="M397.42,254.67c.7.52,3.29,6.05,2.15,6.44-1.29-1.6-3.24-4.26-2.15-6.44Z"/>
                <path class="cls-5" d="M401,262.55l2.15,5.73c-.61.23-4.54-4.78-2.15-5.73Z"/>
                <path class="cls-5" d="M394.56,247.51l2.15,5.73c-.77.29-4.11-4.79-2.15-5.73Z"/>
                <path class="cls-5" d="M407.44,268.28l2.15,5.73c-1.29.59-4.07-4.65-2.15-5.73Z"/>
                <path class="cls-5" d="M403.15,202.4c.75.05,2.04.54,1.43,1.43l-6.09.36c-.1-1.01,4.41-1.81,4.65-1.79Z"/>
                <path class="cls-5" d="M388.11,231.76c.35,1.65,3.24,4.95,1.43,6.44-.13-2.13-3.55-4.42-1.43-6.44Z"/>
                <path class="cls-5" d="M404.58,261.12c.41-.1,2.96,5.42,2.15,5.73-1.55.11-3.03-5.51-2.15-5.73Z"/>
                <path class="cls-5" d="M422.48,285.46c.92,2.64-3.97,3.48-5.37,2.51l5.37-2.51Z"/>
                <path class="cls-5" d="M430.36,198.1c3.63.52-3.44,3-4.65,1.79,0-1.02,4.41-1.83,4.65-1.79Z"/>
                <path class="cls-5" d="M420.33,199.54c.91.02,2.6-.04,2.15,1.43l-6.09-.36c1.03.08,3.73-1.08,3.94-1.07Z"/>
                <path class="cls-5" d="M403.86,269.71c.27,2.15,2.64,4.08,1.43,6.44-.77-1.18-2.98-5.16-1.43-6.44Z"/>
                <path class="cls-20" d="M398.85,246.08c.11,1.76,2.02,3.25,1.43,5.01-.93.34-3.62-4.09-1.43-5.01Z"/>
                <path class="cls-5" d="M409.59,276.87c1.14-.47,2.68,3.99,2.15,5.01-1.24.35-2.1-4.29-2.15-5.01Z"/>
                <path class="cls-5" d="M382.38,218.87l1.43,4.3c-1.16.59-2.52-3.47-1.43-4.3Z"/>
              </g>
            </g>
          </g>
        </g>
        <path class="cls-23" d="M486.57,147.98c-2.36,17.97-32.09,24.59-46.9,25.78-3.04.24-25.94.48-27.21,0-1.11-.42-1.7-3.42-2.15-3.58-1.04-.36-3.97,4.59-7.16,2.86v-9.31l6.44,1.43c1.35-1.09-.5-4.18-.36-4.65,1.71-5.75,43.08-13.27,50.48-18.98,2.69-2.07,8.06-8.63,5.01-12.17-.66,1.54-.28,4.66-1.07,6.09-5.57,10.03-39.47,15.7-51.56,21.12,3.84-13.76-3.29-51.93,15.04-56.57.68-.17,4.38-.94,4.65-.72.65,21.26,23.93,16.7,28.64,0,15.36,4.55,28.02,34.34,26.14,48.69Z"/>
        <g>
          <path class="cls-3" d="M477.98,79.95c7.46,9.01,21.02,14.22,27.21,23.27,12.44,18.19.09,37.43-17.9,44.75h-.72c1.89-14.35-10.78-44.14-26.14-48.69-4.71,16.7-28,21.26-28.64,0-.27-.22-3.97.54-4.65.72-7.18-6.13-7.55-11.74-9.31-20.05-4.92-23.33-4.92-47.17,25.42-47.26,1.61-.66-.88-5.41-.36-8.23,1.14-6.11,13.35-9.76,12.17.72-.31,2.73-4.36,6.75-4.3,7.16.14.99,12.39,3.72,16.47,10.74,6.99,12.04-1.62,21.95,10.74,36.88Z"/>
          <path class="cls-23" d="M434.66,98.57c3.19-.86,18.2,2.13,22.91.72-.37,15.28-24.59,18.75-24.7,1.07.55-.35,1.39-1.68,1.79-1.79Z"/>
          <path class="cls-23" d="M455.42,84.25v13.61c-2.43-.34-16.87.6-17.54-.36-.22-.31-.73-7.11.36-7.52,4.07-1.53,13.05.35,17.19-5.73Z"/>
          <path class="cls-23" d="M448.98,19.8c9.61-1.68,2.6,12.28,0,12.89-6.36,1.5-6.32-11.79,0-12.89Z"/>
          <g>
            <path class="cls-23" d="M429.64,56.32c2.91-.4,10.85-.19,13.61.72,1.83.6,10.66,8.49,11.46,8.59.98.12,3.67-3.41,7.16-2.86,6.22.97,6.79,11.98,1.43,13.61-3.55,1.08-5.5-1.61-5.73-1.43-.67.53-.07,4.22-1.07,6.09-3.98,7.38-16.7,8.84-23.99,6.8-12.6-3.53-19.88-29.17-2.86-31.51Z"/>
            <g>
              <path class="cls-2" d="M443.25,70.64c1.81-1.03,5.39,5.7.72,5.73-3.29.02-2.56-4.67-.72-5.73Z"/>
              <path class="cls-3" d="M426.78,62.77c1.46.2,1.45,4.11,0,4.3-1.9.25-1.88-4.55,0-4.3Z"/>
              <path class="cls-3" d="M441.82,63.48c2.99-.86,2.37,3.6.72,3.58-.79,0-2.86-2.96-.72-3.58Z"/>
              <path class="cls-8" d="M462.58,67.06v5.73c-1.9-1.67-2.55-4.21,0-5.73Z"/>
              <path class="cls-3" d="M438.95,77.09c1.18,3.75-3.34,4-4.65,1.79l4.65-1.79Z"/>
              <path class="cls-3" d="M432.51,67.06c-.01.88,1.91,4.02,1.43,4.3-2.19,1.26-3.32-2.71-1.43-4.3Z"/>
              <path class="cls-2" d="M425.35,71.36l.72,3.58c-1.27.77-2.04-3.8-.72-3.58Z"/>
            </g>
          </g>
        </g>
      </g>
      <g>
        <path class="cls-1" d="M563.55.47c47.84-6.84,51.83,63.41,8.59,65.88S525.33,5.93,563.55.47Z"/>
        <g>
          <path class="cls-3" d="M570.71,24.81c3.65,13.17,0,11.13-11.1,8.95,6.36-1.82,8.85-2.14,11.1-8.95Z"/>
          <path class="cls-3" d="M569.28,4.05c2.75-1.04,2.78,3.02,1.43,3.58-2.22.92-3.62-2.75-1.43-3.58Z"/>
          <path class="cls-3" d="M587.18,50.59c3.11-1.21,2.61,3.55.72,3.58-1.46.02-2.83-2.76-.72-3.58Z"/>
          <path class="cls-3" d="M569.99,58.47c.66,0,2.94,2.85.72,3.58-3.32,1.08-2.44-3.59-.72-3.58Z"/>
          <path class="cls-3" d="M597.2,31.26c2.2-.08,2.34,3.06.72,3.58-2.04.65-3.01-3.5-.72-3.58Z"/>
          <path class="cls-3" d="M541.35,31.26c2.04-.65,3.01,3.5.72,3.58s-2.34-3.06-.72-3.58Z"/>
          <path class="cls-3" d="M586.46,13.36c.79-.52,3.62.25,3.22,1.79-.73,2.82-5.44-.34-3.22-1.79Z"/>
          <path class="cls-3" d="M551.37,50.59c1.89-.46,2.5,3.14.72,3.58-1.89.46-2.5-3.14-.72-3.58Z"/>
          <path class="cls-3" d="M550.66,13.36c1.94-1.24,3.62,1.72,2.15,2.86-1.25.97-3.67-1.89-2.15-2.86Z"/>
        </g>
      </g>
      <g>
        <path class="cls-8" d="M576.8,181.63v161.47l6.8.36-.36-162.55c1.38-.01,1.58.72,2.15.72v161.47c.52.73,15.47.3,17.9.36,1.35.03.44-.73,1.43-.72,20.97.34,42.01,1.24,63.01.72l1.43-.72,130.68,2.15h-394.2c2.39-.32,5.56-1.79,7.16-2.15l35.09.36-.72-78.41c.95,0,1.92.01,2.86,0l-.36,78.77,6.8-.36v-77.69c.57,0,.77-.71,2.15-.72l-.72,78.41,52.63.36-.36-78.77c.94.04,1.93-.07,2.86,0l-.72,78.41c.53.75,5.83.25,7.16.36,1.1.09,1.35,0,1.43,0,2.49.09,19.47.46,20.05-.36l-.72-78.41c.69-.02,1.45.26,1.43-.72.24,0,.48,0,.72,0v79.13c.54.76,5.83.25,7.16.36,1.64.14.39-.73.72-.72,3.17.13,24.07,1.76,25.06.36l-.72-162.19c1.39-.02,1.58.72,2.15.72Z"/>
        <path class="cls-23" d="M583.24,180.92l.36,162.55-6.8-.36v-161.47c1.49-.02,4.16-.69,6.44-.72Z"/>
        <g>
          <path class="cls-8" d="M583.96,165.88c4.28-.05,8.61-.04,12.89,0,6.51.05,22.01-1.2,27.21,0v1.43c-24.34-.6-48.73.49-73.04.72-1.53-2.05.71-1.29.72-1.43,10.76.11,21.47-.58,32.22-.72Z"/>
          <path class="cls-24" d="M289.65,165.16c3.79,1.1,9.11,1.26,12.89,0,.04.09,1.4,1.34,1.43,1.43.09.44-.09.99,0,1.43l-14.32-.72-1.43-1.43v-.72c.46.05,1.07-.11,1.43,0Z"/>
          <path class="cls-23" d="M624.06,167.31c8.38,4,3.68,12.02-3.94,12.89-59.44-3.2-124.47,4.35-183.31-.72-.4-.03-2.44-2.81-2.86-2.86-6.87-.87-15.45.61-22.56.72v-.72c-.25-2.55.65-1.38,1.79-1.43,11.96-.52,23.88.26,35.8-1.43,5.72-.81,15.36-5.29,19.33-5.73,6.23-.69,18.67.94,26.14.72,18.81-.57,37.74-.54,56.57-.72,24.31-.22,48.7-1.32,73.04-.72Z"/>
          <path class="cls-23" d="M303.97,168.03c.47,2.33,1.24,10.9,1.43,11.46h-15.4l-.36-12.17,14.32.72Z"/>
        </g>
        <g>
          <path class="cls-3" d="M288.22,165.88l1.43,1.43.36,12.17h15.4c.32.92,1.2,1.23,1.43,2.15l-1.43,80.56c1.34,3.57,13.92,1.03,17.9,1.79,1.74.78-.52.58-.72.72-.55.38-3.48-.78-4.3,1.07-.71,1.61,0,13.55.72,16.11-.13.37-.34,2.34-1.07,2.15s.2-2.14-1.07-2.15c.09-2.17.35-15.32,0-16.11-.7-1.59-5.02-1.59-5.73,0-1.51,3.39.66,39.42.72,46.19,0,.83,1.48,1.57,1.43,1.79-.07.32-1.99.59-2.15,1.43-.61,3.29-2.69,8.32,0,8.59h-4.3l1.79,3.22c-13.31-5.87-2.61,1.74-1.79,3.22,4.77,8.62-9.88-4.41-10.74-.72l4.65,3.94-6.8-3.94c-.17-2.46,11.93-4.58,14.32-8.59,5.12-8.6-1.4-43.63,2.15-55.14-1.08-2.06-4.99-.37-5.73-1.43-2.34-3.35,1.79-71.85,0-81.63h-15.75l-1.07,148.58-.36-149.3-7.16.72.72,150.37c12.47,3.64,17.84,7.49,31.87,3.94,10.59-2.68,15-6.73,15.04-17.9-1.12,7.69,5.04,17.96-1.07,23.63-1.09,0-.52,1.43-1.07,1.43-2.14.02-2.67-1.44-2.86-1.43-13.1.34-22.98,2.17-35.45,0-1.76-.31-7.1-1.5-6.44.72-2.55-.11-1.29-.71-1.43-.72v-160.04c-2.05-4.62-35.27,6.04-32.22-10.74,1.93-10.62,32.51-4.42,40.82-6.09Z"/>
          <path class="cls-23" d="M253.49,167.31c7.84-2.04,24.8,1.53,33.66,0l.36,12.53c-1,1.42-33.06.85-34.73.36-4.75-1.41-4.88-11.43.72-12.89Z"/>
          <path class="cls-23" d="M287.5,342.75c.34,2.45-4.15.81-6.44.72-.66-2.22,4.68-1.02,6.44-.72Z"/>
        </g>
        <path class="cls-23" d="M302.54,165.16c-3.78,1.26-9.1,1.1-12.89,0-.46-2.24,8.22-11.37,8.95-11.46,3.13-.38,3.15,9.33,3.94,11.46Z"/>
        <g>
          <path class="cls-23" d="M549.58,263.98v79.48c-1.34-.11-6.62.4-7.16-.36v-79.13c2.33.07,4.5,1.21,7.16,0Z"/>
          <path class="cls-23" d="M519.51,343.47c-1.33-.1-6.63.39-7.16-.36l.72-78.41c1.25.09,5.92-.38,6.44.36v78.41Z"/>
          <path class="cls-23" d="M456.5,265.41v77.69l-6.8.36.36-78.77c2.3-.02,5.08.73,6.44.72Z"/>
          <path class="cls-23" d="M348.37,304.8c-.62,4.82,1.26,37.63-1.07,38.67-.51.23-5.05.1-5.37-.36-1.11-1.56.84-33.54,0-38.31.77.07,4.68-1.92,6.44,0Z"/>
          <path class="cls-23" d="M316.86,281.88c-.18,4.4-.77,14.48-1.43,18.26-.58,3.3-3.61,7.88-3.58,11.82-.06-6.77-2.22-42.79-.72-46.19.7-1.59,5.02-1.59,5.73,0,.35.79.09,13.94,0,16.11Z"/>
          <g>
            <path class="cls-26" d="M417.83,79.95c1.75,8.31,2.13,13.92,9.31,20.05-18.32,4.64-11.2,42.81-15.04,56.57-1.81.81-7.83,6.32-8.95,6.44-.72.08-13.7-1.77-14.32-2.15-2.4-1.45-9.35-48.67-12.89-54.42-4.65,0-9.32,0-13.96,0,9.5-23.39,32.11-30.45,55.85-26.49Z"/>
            <path class="cls-26" d="M540.28,139.39c-3.51-.46-31.62-.3-33.3.72-3.68,2.21-.93,21.07-1.79,26.14-.81,1.83-8.78.98-10.74,1.07-4.73.22-9.58-.05-14.32,0l-.72-5.01c3.72-3.25,7.81-9.18,7.88-14.32,17.99-7.32,30.34-26.56,17.9-44.75-6.19-9.05-19.75-14.27-27.21-23.27,37.35-4.08,69.73,19.39,62.3,59.43Z"/>
            <path class="cls-26" d="M483.71,185.93c-.33-1.05-.54-3.11-.72-4.3,2.79-.04,21.56-.55,22.2.36l-1.07,81.99h-85.21c-1.27-3.76-16.02-35.52-14.32-36.52,31.18-.9,62.57-2.51,93.81-1.43.27,0,7.33,2.67,2.15-1.43-1.08-.86-23.94,2.38-27.57.36,14.02-3.34,14-28.67,10.74-39.03Z"/>
            <path class="cls-26" d="M408.52,184.5v2.15c-18.26-1.19-37.19,2.96-55.5,2.86-12.78,5.15-24.07,61.16-29.72,74.47-3.98-.76-16.56,1.78-17.9-1.79l1.43-80.56c5.52,4.41,35.94-1.15,42.61,1.43,1.83.71-.56,3.22.72,4.3,2.08.07.42-2.89,1.43-3.58,2.35-1.6,49.52.87,56.93.72Z"/>
            <g>
              <g>
                <path class="cls-26" d="M549.58,263.98c-2.66,1.21-4.83.07-7.16,0-.24,0-.48,0-.72,0-4.15-.11-35.15.83-35.8-1.07l.72-80.92,41.89-1.07c1.97,27.6,1.07,55.41,1.07,83.06Z"/>
                <g>
                  <path class="cls-4" d="M527.74,245.36c1.32-.4,2.56,2.13,1.43,2.86-2.57,1.69-2.88-2.42-1.43-2.86Z"/>
                  <path class="cls-4" d="M517.72,195.96c1.76-.39,2.39,2.49.72,2.86-1.76.39-2.39-2.49-.72-2.86Z"/>
                  <path class="cls-4" d="M538.49,199.54c2.94-.49,1.78,2.68.72,2.86-1.42.25-2.14-2.63-.72-2.86Z"/>
                  <path class="cls-4" d="M531.32,253.24c1.76-.39,2.39,2.49.72,2.86-1.76.39-2.39-2.49-.72-2.86Z"/>
                  <path class="cls-4" d="M539.92,217.44c1.76-.39,2.39,2.49.72,2.86-1.76.39-2.39-2.49-.72-2.86Z"/>
                  <path class="cls-4" d="M521.3,190.23c1.76-.39,2.39,2.49.72,2.86-1.76.39-2.39-2.49-.72-2.86Z"/>
                  <path class="cls-4" d="M519.87,248.23c1.76-.39,2.39,2.49.72,2.86-1.76.39-2.39-2.49-.72-2.86Z"/>
                  <path class="cls-4" d="M532.04,234.62c2.39-.36,2.28,2.23,1.43,2.86s-3.63-2.54-1.43-2.86Z"/>
                  <path class="cls-4" d="M533.47,242.5c1.76-.39,2.39,2.49.72,2.86-1.76.39-2.39-2.49-.72-2.86Z"/>
                  <path class="cls-4" d="M519.87,201.68c1.89-.99,2.45,2.15,1.43,2.86s-2.71-2.19-1.43-2.86Z"/>
                  <path class="cls-4" d="M540.63,251.09c1.35.15,1.46,3.04-.72,2.86-1.97-.16.18-2.92.72-2.86Z"/>
                  <path class="cls-4" d="M542.07,224.6l1.43,2.86c-2.14.45-2.25-1.15-1.43-2.86Z"/>
                  <path class="cls-4" d="M519.15,237.49c1.68.06,1.31,2.45.72,2.86-1.37.96-2.5-2.93-.72-2.86Z"/>
                  <path class="cls-4" d="M544.21,248.23c1.24,0,1.23,2.87,0,2.86s-1.23-2.87,0-2.86Z"/>
                  <path class="cls-4" d="M540.63,238.92c1.78-.67,2.51,1.45,1.43,2.15-.64.41-2.51-1.14-1.43-2.15Z"/>
                  <path class="cls-4" d="M516.29,183.78c1.69-.28,2.12,1.92.72,2.15-1.69.28-2.12-1.92-.72-2.15Z"/>
                  <path class="cls-4" d="M539.2,246.08c1.69-.28,2.12,1.92.72,2.15-1.69.28-2.12-1.92-.72-2.15Z"/>
                  <path class="cls-21" d="M544.93,200.25c.36-.01,1.74,1.7.72,2.15-2.37,1.05-1.94-2.11-.72-2.15Z"/>
                  <path class="cls-4" d="M533.47,248.23c1.29-.82,1.55,2.29,0,2.86-.55-.55-.61-2.47,0-2.86Z"/>
                  <path class="cls-4" d="M524.88,195.96c2.43.19.08,3.06-.72,1.43-.38-.79.61-1.44.72-1.43Z"/>
                  <polygon class="cls-21" points="539.92 187.36 540.99 187.72 540.63 188.8 540.28 188.44 539.92 187.36"/>
                  <polygon class="cls-21" points="545.65 185.21 546 186.29 544.93 186.65 544.57 186.29 545.65 185.21"/>
                  <polygon class="cls-22" points="540.63 190.94 540.99 192.02 539.92 192.38 539.56 192.02 540.63 190.94"/>
                </g>
              </g>
              <g>
                <path class="cls-9" d="M540.28,139.39c12.84,1.68,11.87,16.64,11.46,27.21,0,.14-2.25-.62-.72,1.43-18.82.17-37.76.14-56.57.72v-1.43c1.96-.09,9.93.75,10.74-1.07.86-5.07-1.89-23.92,1.79-26.14,1.68-1.01,29.79-1.17,33.3-.72Z"/>
                <path class="cls-26" d="M508.41,140.82c1.7-.66,34.6-.13,36.52.72,6.96,3.07,4.08,18.63,4.65,24.7l-42.61,1.07c0-4.38-1.93-25.19,1.43-26.49Z"/>
                <path class="cls-4" d="M544.93,158.72c.44.04,1.71,1.71.72,2.15-1.53.68-2.08-2.27-.72-2.15Z"/>
              </g>
            </g>
          </g>
        </g>
      </g>
    </g>
  </g>
</svg>